<?xml version="1.0" encoding="UTF-8"?>
<!DOCTYPE svg PUBLIC "-//W3C//DTD SVG 1.1//EN" "http://www.w3.org/Graphics/SVG/1.1/DTD/svg11.dtd">
<!-- Creator: CorelDRAW 2020 (64-Bit) -->
<svg xmlns="http://www.w3.org/2000/svg" xml:space="preserve" width="30.875mm" height="30.875mm" version="1.1" style="shape-rendering:geometricPrecision; text-rendering:geometricPrecision; image-rendering:optimizeQuality; fill-rule:evenodd; clip-rule:evenodd"
viewBox="0 0 3087.5 3087.5"
 xmlns:xlink="http://www.w3.org/1999/xlink"
 xmlns:xodm="http://www.corel.com/coreldraw/odm/2003">
 <defs>
  <style type="text/css">
   <![CDATA[
    .fil0 {fill:#990F14}
    .fil4 {fill:#FEFEFE;fill-rule:nonzero}
    .fil7 {fill:#D6D3CD;fill-rule:nonzero}
    .fil8 {fill:#C1E5F7;fill-rule:nonzero}
    .fil2 {fill:#7BCCEA;fill-rule:nonzero}
    .fil3 {fill:#60C2DF;fill-rule:nonzero}
    .fil1 {fill:#4997CE;fill-rule:nonzero}
    .fil5 {fill:#1983B8;fill-rule:nonzero}
    .fil6 {fill:#1E3849;fill-rule:nonzero}
   ]]>
  </style>
 </defs>
 <g id="Layer_x0020_1">
  <metadata id="CorelCorpID_0Corel-Layer"/>
  <ellipse class="fil0" cx="1538.36" cy="1560.03" rx="1534.27" ry="1509.72"/>
  <g id="_2381603592000">
   <path class="fil1" d="M2717.11 2129.21l-790.11 0 0 -1088.22 409.59 0c58.19,0 111.64,33.92 138.97,88.2l380.54 755.65c55.75,110.75 -20.22,244.37 -138.99,244.37z"/>
   <path class="fil2" d="M513.19 693.68l1337.1 0c42.36,0 76.71,36.29 76.71,81.05l0 1354.48 -1490.53 0 0 -1354.48c0,-44.76 34.35,-81.05 76.72,-81.05z"/>
   <path class="fil3" d="M410.19 1853.37l1521.67 0 0 277.8 -1567 0 0 -229.9c0,-26.47 20.29,-47.9 45.33,-47.9z"/>
   <path class="fil4" d="M2034.86 1187.17l244.69 0c31.48,0 60.37,18.42 75.03,47.85l168.04 337.28c12.39,24.85 -4.67,54.73 -31.27,54.73l-445.53 0 -10.96 -439.86z"/>
   <path class="fil5" d="M2030.67 2129.21c4.53,-208.93 166.3,-376.82 365.19,-376.82 196.86,0 357.33,164.49 364.98,370.44 -13.74,4.13 -28.37,6.38 -43.73,6.38l0 0 -686.44 0z"/>
   <path class="fil6" d="M2110.93 2134.37c0,-168.34 129.21,-304.83 288.58,-304.83 159.38,0 288.59,136.49 288.59,304.83 0,168.36 -129.21,304.82 -288.59,304.82 -159.37,0 -288.58,-136.46 -288.58,-304.82z"/>
   <path class="fil6" d="M562.1 2203.84c0,-130 99.77,-235.39 222.83,-235.39 123.07,0 222.83,105.39 222.83,235.39 0,129.97 -99.76,235.35 -222.83,235.35 -123.06,0 -222.83,-105.38 -222.83,-235.35z"/>
   <path class="fil7" d="M2300.68 2134.37c0,-57.64 44.26,-104.4 98.83,-104.4 54.59,0 98.83,46.76 98.83,104.4 0,57.66 -44.24,104.39 -98.83,104.39 -54.57,0 -98.83,-46.73 -98.83,-104.39z"/>
   <path class="fil7" d="M704.57 2203.84c0,-46.89 35.97,-84.89 80.36,-84.89 44.39,0 80.36,38 80.36,84.89 0,46.88 -35.97,84.88 -80.36,84.88 -44.39,0 -80.36,-38 -80.36,-84.88z"/>
   <path class="fil8" d="M1606.84 1289.35c0,247.21 -189.72,447.59 -423.74,447.59 -234.02,0 -423.74,-200.38 -423.74,-447.59 0,-247.18 189.72,-447.55 423.74,-447.55 234.02,0 423.74,200.37 423.74,447.55z"/>
   <path class="fil4" d="M766 1213.6l-0.7 0.89c-3.89,24.35 -5.94,49.35 -5.94,74.86 0,18.18 1.06,36.09 3.05,53.7 1.13,0.64 2.32,1.19 3.59,1.62 36.2,12.3 65.37,26.55 73.12,59.32 7.76,32.77 35.16,144.97 55.85,179.13 20.67,34.11 74.78,47.35 89.48,-4.96 9.57,-34.06 7.75,-73.73 19.39,-94.21 11.63,-20.47 -29.73,-72.36 5.18,-83.28 34.89,-10.93 74.95,-30.05 52.98,-60.09 -21.97,-30.02 -50.41,-17.73 -60.75,-54.61 -10.34,-36.85 -18.09,-65.54 -9.05,-65.54 9.05,0 6.47,73.75 45.24,80.57 38.78,6.82 57.94,6.12 74.97,-30.03 3.68,-7.85 -49.12,-49.16 -41.37,-57.37 7.77,-8.16 24.57,17.77 55.6,20.5 31.01,2.72 60.74,15.02 63.32,38.22 2.59,23.21 29.78,79.68 43.95,77.83 36.97,-4.84 -9.04,-55.97 11.64,-73.72 20.67,-17.76 29.72,-28.67 54.28,-10.93 24.56,17.76 25.85,46.41 24.56,65.53 -1.29,19.12 14.03,65.22 28.24,80.25 14.23,15.02 40.27,43.99 63.54,31.7 23.26,-12.27 -2.6,-18.86 -21.97,-32.64 -19.39,-13.78 -38.79,-71.11 -24.57,-79.31 14.22,-8.18 41.36,-10.92 24.57,-35.5 -16.81,-24.56 -14.23,-32.77 -1.3,-39.6 12.92,-6.81 43.94,-22.29 41.36,-43.92 -2.59,-21.6 -28.44,-48.9 -15.51,-59.82 12.92,-10.94 32.31,19.09 46.53,0 14.22,-19.12 7.76,-69.64 0,-103.77 -7.75,-34.15 -71.08,-32.76 -62.04,-55.97 9.04,-23.21 1.29,-35.51 -31.03,-50.53 -32.3,-15.01 -68.51,-16.39 -99.52,0 -31.03,16.37 -41.36,4.12 -68.51,12.28 -27.14,8.21 -29.72,21.86 -42.65,28.69 -12.93,6.83 -31.02,12.29 -58.16,8.18 -27.15,-4.09 -42.66,-39.59 -74.98,-9.57 -32.31,30.07 -15.51,88.78 -71.09,80.56 -55.57,-8.17 -102.11,-5.46 -104.69,21.86 -2.59,27.3 12.93,51.89 -15.52,65.53 -28.42,13.66 -49.11,38.22 -71.09,64.15z"/>
   <path class="fil4" d="M1027.11 1511.25c8.45,-18.21 27.14,-47.77 33.6,-36.86 6.46,10.91 21.97,69.62 0,79.19 -21.97,9.55 -40.94,-26.52 -33.6,-42.33z"/>
   <path class="fil4" d="M1393.59 1551.23c17.45,-18.19 33.61,-16.39 53,-40.94 19.37,-24.6 28.42,-47.8 46.51,-39.59 18.11,8.18 37.5,25.94 56.89,13.64 5.16,-3.28 10.86,-4.55 16.31,-3.76 -24.96,55.7 -60.48,105.08 -103.83,145.28 -1.7,-6.11 -4.04,-11.17 -8.13,-14.55 -11.64,-9.55 -49.12,16.39 -60.75,10.92 -11.64,-5.47 -17.85,-52.37 0,-71z"/>
   <path class="fil4" d="M1404.53 1376.09c3.08,-4.79 19.39,-39.59 36.19,-28.68 16.81,10.93 16.81,55.98 0,62.8 -16.8,6.85 -46.7,-17.79 -36.19,-34.12z"/>
   <path class="fil4" d="M1528.61 1411.39c12.53,-0.95 43.37,3.92 55.6,22.61 -2.84,8.8 -5.95,17.46 -9.29,26.01 -14.73,-10.82 -64.7,-47.2 -46.31,-48.62z"/>
  </g>
 </g>
</svg>
