<?xml version="1.0" encoding="UTF-8"?>
<!DOCTYPE svg PUBLIC "-//W3C//DTD SVG 1.1//EN" "http://www.w3.org/Graphics/SVG/1.1/DTD/svg11.dtd">
<!-- Creator: CorelDRAW 2020 (64-Bit) -->
<svg xmlns="http://www.w3.org/2000/svg" xml:space="preserve" width="30.875mm" height="30.875mm" version="1.1" style="shape-rendering:geometricPrecision; text-rendering:geometricPrecision; image-rendering:optimizeQuality; fill-rule:evenodd; clip-rule:evenodd"
viewBox="0 0 3087.5 3087.5"
 xmlns:xlink="http://www.w3.org/1999/xlink"
 xmlns:xodm="http://www.corel.com/coreldraw/odm/2003">
 <defs>
  <style type="text/css">
   <![CDATA[
    .fil0 {fill:#663333}
    .fil4 {fill:#FEFEFE;fill-rule:nonzero}
    .fil9 {fill:#FDD11E;fill-rule:nonzero}
    .fil7 {fill:#D6D3CD;fill-rule:nonzero}
    .fil8 {fill:#C1E5F7;fill-rule:nonzero}
    .fil2 {fill:#7BCCEA;fill-rule:nonzero}
    .fil3 {fill:#60C2DF;fill-rule:nonzero}
    .fil1 {fill:#4997CE;fill-rule:nonzero}
    .fil5 {fill:#1983B8;fill-rule:nonzero}
    .fil6 {fill:#1E3849;fill-rule:nonzero}
   ]]>
  </style>
    <clipPath id="id0">
     <path d="M65.43 -188.4l3101.78 1.91 0 3091.59 -3101.78 -1.91 0 -3091.59z"/>
    </clipPath>
 </defs>
 <g id="Layer_x0020_1">
  <metadata id="CorelCorpID_0Corel-Layer"/>
  <ellipse class="fil0" cx="1538.36" cy="1560.03" rx="1534.27" ry="1509.72"/>
  <g id="_2417806656768">
   <g style="clip-path:url(#id0)">
    <image x="65.43" y="-188.4" width="3101.78" height="3093.5" xlink:href="bongkir_Images\bongkir_ImgID1.png"/>
   </g>
  </g>
  <g id="_2417806656576">
   <path class="fil1" d="M2674.68 2249.59l-757.27 0 0 -1042.99 392.57 0c55.77,0 107,32.51 133.19,84.53l364.72 724.24c53.44,106.15 -19.38,234.22 -133.21,234.22z"/>
   <path class="fil2" d="M562.35 873.72l1281.54 0c40.6,0 73.52,34.78 73.52,77.68l0 1298.19 -1428.59 0 0 -1298.19c0,-42.9 32.92,-77.68 73.53,-77.68z"/>
   <path class="fil3" d="M463.64 1985.21l1458.43 0 0 266.26 -1501.88 0 0 -220.34c0,-25.37 19.44,-45.92 43.45,-45.92z"/>
   <path class="fil4" d="M2020.79 1346.7l234.51 0c30.18,0 57.87,17.66 71.91,45.86l161.07 323.27c11.87,23.81 -4.49,52.45 -29.98,52.45l-427.01 0 -10.5 -421.58z"/>
   <path class="fil5" d="M2016.77 2249.59c4.35,-200.25 159.39,-361.16 350.01,-361.16 188.68,0 342.48,157.65 349.81,355.05 -13.16,3.96 -27.19,6.11 -41.91,6.11l0 0 -657.91 0z"/>
   <path class="fil6" d="M2093.7 2254.54c0,-161.35 123.83,-292.16 276.58,-292.16 152.76,0 276.6,130.81 276.6,292.16 0,161.36 -123.84,292.15 -276.6,292.15 -152.75,0 -276.58,-130.79 -276.58,-292.15z"/>
   <path class="fil6" d="M609.24 2321.12c0,-124.6 95.62,-225.61 213.56,-225.61 117.95,0 213.57,101.01 213.57,225.61 0,124.56 -95.62,225.57 -213.57,225.57 -117.94,0 -213.56,-101.01 -213.56,-225.57z"/>
   <path class="fil7" d="M2275.56 2254.54c0,-55.25 42.42,-100.06 94.72,-100.06 52.32,0 94.72,44.81 94.72,100.06 0,55.26 -42.4,100.05 -94.72,100.05 -52.3,0 -94.72,-44.79 -94.72,-100.05z"/>
   <path class="fil7" d="M745.78 2321.12c0,-44.94 34.48,-81.36 77.02,-81.36 42.54,0 77.03,36.42 77.03,81.36 0,44.93 -34.49,81.35 -77.03,81.35 -42.54,0 -77.02,-36.42 -77.02,-81.35z"/>
   <path class="fil8" d="M1610.55 1444.64c0,236.94 -181.83,428.98 -406.13,428.98 -224.29,0 -406.12,-192.04 -406.12,-428.98 0,-236.91 181.83,-428.96 406.12,-428.96 224.3,0 406.13,192.05 406.13,428.96z"/>
   <path class="fil9" d="M1032.29 250.26c103.17,-108.96 270.44,-108.96 373.61,0 103.18,109 103.18,285.67 0,394.64 -103.17,108.99 -270.44,108.99 -373.61,0 -103.17,-108.97 -103.17,-285.64 0,-394.64z"/>
   <path class="fil4" d="M1230.78 624.36c-4.9,5.16 -12.8,5.84 -18.44,1.25 -6.13,-4.97 -7.27,-14.25 -2.56,-20.75l139.1 -191 -65.42 0c-3.72,0 -7.28,-1.55 -9.9,-4.32 -2.63,-2.77 -4.1,-6.54 -4.1,-10.46l0 -90.95 -45.45 -0.02c-7.73,0 -13.99,-6.62 -13.99,-14.78 -0.01,-8.16 6.27,-14.8 13.99,-14.8l59.45 0c3.71,0 7.28,1.57 9.91,4.33 2.62,2.78 4.1,6.55 4.1,10.47l0 90.95 79.85 0c5.34,0 10.2,3.21 12.56,8.26 2.35,5.06 1.79,11.08 -1.46,15.55l-156.43 214.82 -1.21 1.45z"/>
   <path class="fil4" d="M1227.67 624.33l-1.38 1.28c-6.13,4.99 -14.92,3.76 -19.63,-2.7l-156.44 -214.82c-3.25,-4.47 -3.82,-10.49 -1.46,-15.55 2.36,-5.05 7.23,-8.26 12.56,-8.26l79.86 0.03 0 -90.98c-0.01,-8.16 6.27,-14.8 14.01,-14.8l59.44 0c7.73,0 14,6.64 14,14.8 0.01,8.16 -6.27,14.8 -14,14.78l-45.44 0 0 90.97c0,3.92 -1.47,7.69 -4.1,10.46 -2.62,2.77 -6.19,4.34 -9.9,4.34l-65.42 -0.02 139.09 191c4.33,5.97 3.72,14.3 -1.19,19.47z"/>
   <path class="fil4" d="M804.66 1372.03l-0.68 0.85c-3.72,23.34 -5.68,47.3 -5.68,71.76 0,17.42 1.01,34.58 2.92,51.47 1.08,0.6 2.22,1.14 3.44,1.55 34.7,11.79 62.65,25.44 70.08,56.85 7.43,31.4 33.7,138.95 53.53,171.68 19.81,32.7 71.67,45.38 85.76,-4.75 9.17,-32.65 7.43,-70.67 18.58,-90.29 11.15,-19.63 -28.49,-69.35 4.96,-79.82 33.45,-10.48 71.84,-28.81 50.79,-57.59 -21.06,-28.78 -48.31,-17 -58.23,-52.35 -9.91,-35.32 -17.34,-62.81 -8.67,-62.81 8.67,0 6.2,70.68 43.36,77.22 37.16,6.54 55.53,5.86 71.85,-28.78 3.53,-7.52 -47.07,-47.12 -39.64,-54.99 7.44,-7.82 23.54,17.03 53.28,19.66 29.72,2.6 58.21,14.38 60.69,36.62 2.48,22.24 28.54,76.37 42.12,74.6 35.44,-4.65 -8.67,-53.65 11.16,-70.66 19.81,-17.02 28.48,-27.48 52.03,-10.48 23.53,17.02 24.77,44.49 23.53,62.81 -1.24,18.33 13.45,62.51 27.07,76.91 13.64,14.4 38.59,42.17 60.89,30.39 22.3,-11.76 -2.48,-18.08 -21.05,-31.29 -18.59,-13.2 -37.18,-68.15 -23.55,-76.01 13.63,-7.84 39.65,-10.46 23.55,-34.03 -16.11,-23.53 -13.64,-31.4 -1.25,-37.95 12.39,-6.53 42.12,-21.36 39.64,-42.09 -2.48,-20.7 -27.25,-46.87 -14.86,-57.33 12.38,-10.49 30.97,18.29 44.59,0 13.63,-18.33 7.44,-66.75 0,-99.46 -7.42,-32.73 -68.12,-31.4 -59.46,-53.64 8.67,-22.25 1.24,-34.04 -29.73,-48.44 -30.97,-14.38 -65.66,-15.7 -95.39,0 -29.74,15.69 -39.64,3.95 -65.66,11.77 -26.01,7.87 -28.49,20.95 -40.88,27.5 -12.39,6.54 -29.73,11.78 -55.75,7.84 -26.02,-3.92 -40.88,-37.95 -71.85,-9.17 -30.97,28.82 -14.87,85.08 -68.14,77.21 -53.27,-7.83 -97.86,-5.23 -100.34,20.95 -2.48,26.16 12.39,49.74 -14.88,62.81 -27.24,13.09 -47.07,36.63 -68.13,61.48z"/>
   <path class="fil4" d="M1054.91 1657.31c8.1,-17.45 26.02,-45.79 32.21,-35.33 6.19,10.46 21.06,66.74 0,75.9 -21.06,9.16 -39.24,-25.41 -32.21,-40.57z"/>
   <path class="fil4" d="M1406.17 1695.63c16.72,-17.43 32.21,-15.7 50.79,-39.24 18.57,-23.57 27.25,-45.81 44.59,-37.94 17.35,7.84 35.93,24.86 54.52,13.07 4.95,-3.14 10.41,-4.36 15.63,-3.61 -23.92,53.4 -57.97,100.72 -99.52,139.25 -1.63,-5.85 -3.86,-10.71 -7.79,-13.94 -11.15,-9.16 -47.08,15.7 -58.22,10.46 -11.16,-5.24 -17.12,-50.2 0,-68.05z"/>
   <path class="fil4" d="M1416.65 1527.77c2.95,-4.59 18.58,-37.94 34.68,-27.49 16.12,10.48 16.12,53.66 0,60.19 -16.1,6.57 -44.75,-17.05 -34.68,-32.7z"/>
   <path class="fil4" d="M1535.58 1561.6c12,-0.91 41.56,3.76 53.29,21.67 -2.73,8.43 -5.71,16.74 -8.91,24.93 -14.11,-10.37 -62.01,-45.23 -44.38,-46.6z"/>
  </g>
 </g>
</svg>
