<?xml version="1.0" encoding="UTF-8"?>
<!DOCTYPE svg PUBLIC "-//W3C//DTD SVG 1.1//EN" "http://www.w3.org/Graphics/SVG/1.1/DTD/svg11.dtd">
<!-- Creator: CorelDRAW 2020 (64-Bit) -->
<svg xmlns="http://www.w3.org/2000/svg" xml:space="preserve" width="30.875mm" height="30.875mm" version="1.1" style="shape-rendering:geometricPrecision; text-rendering:geometricPrecision; image-rendering:optimizeQuality; fill-rule:evenodd; clip-rule:evenodd"
viewBox="0 0 3087.5 3087.5"
 xmlns:xlink="http://www.w3.org/1999/xlink"
 xmlns:xodm="http://www.corel.com/coreldraw/odm/2003">
 <defs>
  <style type="text/css">
   <![CDATA[
    .fil0 {fill:#F6AD44}
    .fil7 {fill:#FEFEFE;fill-rule:nonzero}
    .fil4 {fill:#FCD967;fill-rule:nonzero}
    .fil6 {fill:#F9F6F1;fill-rule:nonzero}
    .fil5 {fill:#F0C624;fill-rule:nonzero}
    .fil3 {fill:#4997CE;fill-rule:nonzero}
    .fil2 {fill:#1E3849;fill-rule:nonzero}
    .fil1 {fill:#085485;fill-rule:nonzero}
    .fil8 {fill:#154770;fill-rule:nonzero}
   ]]>
  </style>
 </defs>
 <g id="Layer_x0020_1">
  <metadata id="CorelCorpID_0Corel-Layer"/>
  <ellipse class="fil0" cx="1538.36" cy="1560.03" rx="1534.27" ry="1509.72"/>
  <polygon class="fil1" points="224.53,2211.19 484.43,1970.58 2563.66,1970.58 2792.99,2211.19 "/>
  <path class="fil2" d="M2531.17 1997.98l-2044.8 0c-33.75,0 -61.11,-28.29 -61.11,-63.15l0 -1280.12c0,-34.89 27.36,-63.18 61.11,-63.18l2044.8 0c33.74,0 61.11,28.29 61.11,63.18l0 1280.12c0,34.86 -27.37,63.15 -61.11,63.15z"/>
  <path class="fil3" d="M2451.81 1945.2l-1886.1 0c-31.14,0 -56.36,-25.23 -56.36,-56.37l0 -1142.27c0,-31.12 25.22,-56.38 56.36,-56.38l1886.1 0c31.13,0 56.36,25.26 56.36,56.38l0 1142.27c0,31.14 -25.23,56.37 -56.36,56.37z"/>
  <path class="fil4" d="M2532.47 720.03c-8.35,-20.46 -28.24,-33.82 -50.3,-33.82l-1940.52 0c-26.29,0 -49.96,15.9 -59.89,40.25l-141.52 346.42 2336.36 0 -144.13 -352.85z"/>
  <path class="fil5" d="M415.2 1198.14l-1.5 0c-40.56,0 -73.46,-32.88 -73.46,-73.45l0 -51.81 148.41 0 0 51.81c0,40.57 -32.9,73.45 -73.45,73.45z"/>
  <path class="fil5" d="M724.31 1198.14l-1.6 0c-44.31,0 -80.2,-32.88 -80.2,-73.45l0 -51.81 162.02 0 0 51.81c0,40.57 -35.91,73.45 -80.22,73.45z"/>
  <path class="fil5" d="M1034.77 1198.14l-1.68 0c-46.16,0 -83.57,-32.88 -83.57,-73.45l0 -51.81 168.82 0 0 51.81c0,40.57 -37.42,73.45 -83.57,73.45z"/>
  <path class="fil5" d="M1349.98 1198.14l-1.72 0c-46.89,0 -84.91,-32.88 -84.91,-73.45l0 -51.81 171.54 0 0 51.81c0,40.57 -38.01,73.45 -84.91,73.45z"/>
  <path class="fil5" d="M1666.16 1198.14l-1.65 0c-45.97,0 -83.26,-32.88 -83.26,-73.45l0 -51.81 168.15 0 0 51.81c0,40.57 -37.26,73.45 -83.24,73.45z"/>
  <path class="fil5" d="M1977.27 1198.14l-1.68 0c-45.97,0 -83.23,-32.88 -83.23,-73.45l0 -51.81 168.14 0 0 51.81c0,40.57 -37.25,73.45 -83.23,73.45z"/>
  <path class="fil5" d="M2292.12 1198.14l-1.66 0c-45.04,0 -81.55,-32.88 -81.55,-73.45l0 -51.81 164.75 0 0 51.81c0,40.57 -36.5,73.45 -81.54,73.45z"/>
  <path class="fil5" d="M2601.8 1198.14l-1.53 0c-41.69,0 -75.48,-32.88 -75.48,-73.45l0 -51.81 152.48 0 0 51.81c0,40.57 -33.78,73.45 -75.47,73.45z"/>
  <path class="fil6" d="M566.34 1198.14l-1.54 0c-42.05,0 -76.15,-32.88 -76.15,-73.45l0 -51.81 153.86 0 0 51.81c0,40.57 -34.1,73.45 -76.17,73.45z"/>
  <path class="fil6" d="M877.75 1198.14l-1.45 0c-39.64,0 -71.77,-32.88 -71.77,-73.45l0 -51.81 144.99 0 0 51.81c0,40.57 -32.12,73.45 -71.77,73.45z"/>
  <path class="fil6" d="M1191.92 1198.14l-1.45 0c-40.04,0 -72.47,-32.88 -72.47,-73.45l0 -51.81 146.36 0 0 51.81c0,40.57 -32.43,73.45 -72.44,73.45z"/>
  <path class="fil6" d="M1509.15 1198.14l-1.45 0c-40.03,0 -72.47,-32.88 -72.47,-73.45l0 -51.81 146.36 0 0 51.81c0,40.57 -32.43,73.45 -72.44,73.45z"/>
  <path class="fil6" d="M1821.27 1198.14l-1.43 0c-39.1,0 -70.78,-32.88 -70.78,-73.45l0 -51.81 142.97 0 0 51.81c0,40.57 -31.69,73.45 -70.76,73.45z"/>
  <path class="fil6" d="M2135.8 1198.14l-1.51 0c-40.94,0 -74.12,-32.88 -74.12,-73.45l0 -51.81 149.79 0 0 51.81c0,40.57 -33.23,73.45 -74.16,73.45z"/>
  <path class="fil6" d="M2450.33 1198.14l-1.53 0c-41.69,0 -75.48,-32.88 -75.48,-73.45l0 -51.81 152.49 0 0 51.81c0,40.57 -33.79,73.45 -75.48,73.45z"/>
  <polygon class="fil7" points="1581.95,1072.88 1581.95,686.21 1434.89,686.21 1434.89,1072.88 "/>
  <polygon class="fil7" points="1118.57,1072.88 1171.78,686.21 1312.29,686.21 1264.57,1072.88 "/>
  <polygon class="fil7" points="804.49,1072.88 911.22,686.21 1040.39,686.21 950.65,1072.88 "/>
  <polygon class="fil7" points="1891.96,1072.88 1828.59,686.21 1699.12,686.21 1748.96,1072.88 "/>
  <polygon class="fil7" points="2526.04,1072.88 2384.3,686.21 2240.56,686.21 2372.9,1072.88 "/>
  <polygon class="fil7" points="489.3,1072.88 631.04,686.21 774.78,686.21 642.44,1072.88 "/>
  <polygon class="fil7" points="2209.76,1072.88 2102.35,686.21 1960.75,686.21 2060.16,1072.88 "/>
  <path class="fil1" d="M1531.7 632.83c0,12.68 -10.27,22.95 -22.94,22.95 -12.65,0 -22.92,-10.27 -22.92,-22.95 0,-12.65 10.27,-22.92 22.92,-22.92 12.67,0 22.94,10.27 22.94,22.92z"/>
  <path class="fil7" d="M1390.55 1758.2l232.76 0c28.62,0 51.91,-23.28 51.91,-51.9l0 -0.78c0,-28.6 -23.29,-51.91 -51.91,-51.91l-232.76 0c-7.49,0 -13.58,6.09 -13.58,13.59 0,7.49 6.09,13.56 13.58,13.56l232.76 0c13.66,0 24.76,11.12 24.76,24.76l0 0.78c0,13.66 -11.1,24.78 -24.76,24.78l-232.76 0c-7.49,0 -13.58,6.07 -13.58,13.56 0,7.5 6.09,13.56 13.58,13.56z"/>
  <path class="fil7" d="M1647.03 1680.52c4.36,0 8.4,-2.82 9.73,-7.23l71.09 -235.16 -396.8 0 44.91 234.13c1.06,5.51 6.38,9.15 11.9,8.08 5.52,-1.06 9.15,-6.4 8.09,-11.9l-40.27 -209.96 344.76 0 -63.16 208.92c-1.63,5.4 1.4,11.07 6.8,12.68l2.95 0.44z"/>
  <path class="fil7" d="M1714.13 1458.51c4.2,0 8.12,-2.62 9.6,-6.77l22.71 -63.71 51.36 0c5.63,0 10.17,-4.56 10.17,-10.16 0,-5.63 -4.54,-10.19 -10.17,-10.19l-65.7 0 -27.53 77.21c-1.89,5.29 0.85,11.12 6.17,13.02l3.39 0.6z"/>
  <path class="fil7" d="M1797.88 1394.83l55.1 0c9.36,0 16.95,-7.6 16.95,-16.96 0,-9.39 -7.59,-16.98 -16.95,-16.98l-55.1 0c-9.36,0 -16.96,7.59 -16.96,16.98 0,9.36 7.6,16.96 16.96,16.96z"/>
  <path class="fil7" d="M1582.91 1813.49c0,25.76 20.9,46.64 46.65,46.64 25.77,0 46.67,-20.88 46.67,-46.64 0,-25.78 -20.9,-46.65 -46.67,-46.65 -25.75,0 -46.65,20.87 -46.65,46.65z"/>
  <path class="fil7" d="M1363.48 1813.49c0,25.76 20.91,46.64 46.67,46.64 25.75,0 46.65,-20.88 46.65,-46.64 0,-25.78 -20.9,-46.65 -46.65,-46.65 -25.76,0 -46.67,20.87 -46.67,46.65z"/>
  <path class="fil3" d="M1607.8 1813.49c0,12.03 9.75,21.77 21.76,21.77 12.03,0 21.78,-9.74 21.78,-21.77 0,-12.04 -9.75,-21.76 -21.78,-21.76 -12.01,0 -21.76,9.72 -21.76,21.76z"/>
  <path class="fil3" d="M1386.12 1813.49c0,12.03 9.75,21.77 21.78,21.77 12.01,0 21.75,-9.74 21.75,-21.77 0,-12.04 -9.74,-21.76 -21.75,-21.76 -12.03,0 -21.78,9.72 -21.78,21.76z"/>
  <path class="fil7" d="M1600.18 1674.95c4.85,0 9.16,-3.5 10.01,-8.45l36.2 -208.1c0.95,-5.55 -2.75,-10.81 -8.3,-11.79 -5.53,-0.94 -10.81,2.75 -11.78,8.29l-36.19 208.12c-0.96,5.52 2.75,10.82 8.29,11.78l1.77 0.15z"/>
  <path class="fil7" d="M1549.28 1670.41c5.32,0 9.78,-4.12 10.15,-9.51l13.56 -205.84c0.38,-5.6 -3.87,-10.45 -9.47,-10.81 -5.63,-0.42 -10.47,3.86 -10.84,9.46l-13.56 205.87c-0.39,5.6 3.86,10.44 9.46,10.81l0.7 0.02z"/>
  <path class="fil7" d="M1442.93 1674.92l1.61 -0.1c5.54,-0.88 9.33,-6.09 8.48,-11.64l-32.8 -208.12c-0.89,-5.55 -6.1,-9.33 -11.65,-8.48 -5.54,0.88 -9.36,6.09 -8.48,11.67l32.8 208.09c0.78,5 5.11,8.58 10.04,8.58z"/>
  <path class="fil7" d="M1497.22 1670.41l0.52 -0.02c5.63,-0.26 9.93,-5.06 9.67,-10.66l-10.19 -205.84c-0.28,-5.63 -5.13,-9.98 -10.65,-9.67 -5.63,0.28 -9.96,5.05 -9.67,10.68l10.18 205.84c0.26,5.44 4.75,9.67 10.14,9.67z"/>
  <path class="fil7" d="M1366.05 1530.17l325.73 0c5.63,0 10.17,-4.56 10.17,-10.19 0,-5.62 -4.54,-10.17 -10.17,-10.17l-325.73 0c-5.62,0 -10.19,4.55 -10.19,10.17 0,5.63 4.57,10.19 10.19,10.19z"/>
  <path class="fil7" d="M1377.36 1602.56l287.28 0c5.62,0 10.16,-4.57 10.16,-10.19 0,-5.63 -4.54,-10.19 -10.16,-10.19l-287.28 0c-5.63,0 -10.19,4.56 -10.19,10.19 0,5.62 4.56,10.19 10.19,10.19z"/>
  <path class="fil2" d="M2661.38 2402.64l-2305.24 0c-72.68,0 -131.61,-58.93 -131.61,-131.61l0 -59.84 2568.46 0 0 59.84c0,72.68 -58.93,131.61 -131.61,131.61z"/>
  <path class="fil8" d="M1065.39 1997.34c0,12.65 -10.27,22.92 -22.92,22.92l-259.9 0c-12.68,0 -22.95,-10.27 -22.95,-22.92 0,-12.68 10.27,-22.95 22.95,-22.95l259.9 0c12.65,0 22.92,10.27 22.92,22.95z"/>
  <path class="fil8" d="M2296.11 1997.34c0,12.65 -10.27,22.92 -22.92,22.92l-259.9 0c-12.68,0 -22.95,-10.27 -22.95,-22.92 0,-12.68 10.27,-22.95 22.95,-22.95l259.9 0c12.65,0 22.92,10.27 22.92,22.95z"/>
  <polygon class="fil3" points="1206.8,2176.81 1292.24,2097.73 1735.35,2097.73 1810.72,2176.81 "/>
  <polygon class="fil7" points="1441.94,2056.77 1585.19,2056.77 1585.19,2049.11 1441.94,2049.11 "/>
  <polygon class="fil7" points="396.53,2159.51 557.05,2159.51 557.05,2151.87 396.53,2151.87 "/>
  <polygon class="fil7" points="532.29,2056.77 675.54,2056.77 675.54,2049.11 532.29,2049.11 "/>
  <polygon class="fil7" points="471.13,2103.64 614.41,2103.64 614.41,2096 471.13,2096 "/>
  <polygon class="fil7" points="811.3,2056.77 954.55,2056.77 954.55,2049.11 811.3,2049.11 "/>
  <polygon class="fil7" points="738.68,2103.64 881.96,2103.64 881.96,2096 738.68,2096 "/>
  <polygon class="fil7" points="912.53,2159.51 1073.04,2159.51 1073.04,2151.87 912.53,2151.87 "/>
  <polygon class="fil7" points="1082.66,2056.77 1225.94,2056.77 1225.94,2049.11 1082.66,2049.11 "/>
  <polygon class="fil7" points="1010.03,2103.64 1153.31,2103.64 1153.31,2096 1010.03,2096 "/>
  <polygon class="fil7" points="656.44,2170.98 816.97,2170.98 816.97,2163.33 656.44,2163.33 "/>
  <polygon class="fil7" points="2487.23,2159.51 2647.74,2159.51 2647.74,2151.87 2487.23,2151.87 "/>
  <polygon class="fil7" points="2368.74,2056.77 2511.99,2056.77 2511.99,2049.11 2368.74,2049.11 "/>
  <polygon class="fil7" points="2429.9,2103.64 2573.15,2103.64 2573.15,2096 2429.9,2096 "/>
  <polygon class="fil7" points="2089.72,2056.77 2232.97,2056.77 2232.97,2049.11 2089.72,2049.11 "/>
  <polygon class="fil7" points="2162.35,2103.64 2305.6,2103.64 2305.6,2096 2162.35,2096 "/>
  <polygon class="fil7" points="1971.23,2159.51 2131.78,2159.51 2131.78,2151.87 1971.23,2151.87 "/>
  <polygon class="fil7" points="1818.36,2056.77 1961.6,2056.77 1961.6,2049.11 1818.36,2049.11 "/>
  <polygon class="fil7" points="1890.99,2103.64 2034.24,2103.64 2034.24,2096 1890.99,2096 "/>
  <polygon class="fil7" points="2227.32,2170.98 2387.85,2170.98 2387.85,2163.33 2227.32,2163.33 "/>
 </g>
</svg>
