<?xml version="1.0" encoding="UTF-8"?>
<!DOCTYPE svg PUBLIC "-//W3C//DTD SVG 1.1//EN" "http://www.w3.org/Graphics/SVG/1.1/DTD/svg11.dtd">
<!-- Creator: CorelDRAW 2020 (64-Bit) -->
<svg xmlns="http://www.w3.org/2000/svg" xml:space="preserve" width="30.875mm" height="30.875mm" version="1.1" style="shape-rendering:geometricPrecision; text-rendering:geometricPrecision; image-rendering:optimizeQuality; fill-rule:evenodd; clip-rule:evenodd"
viewBox="0 0 3087.5 3087.5"
 xmlns:xlink="http://www.w3.org/1999/xlink"
 xmlns:xodm="http://www.corel.com/coreldraw/odm/2003">
 <defs>
  <style type="text/css">
   <![CDATA[
    .fil0 {fill:#8EC63D}
    .fil6 {fill:#FEFEFE;fill-rule:nonzero}
    .fil12 {fill:#F2C338;fill-rule:nonzero}
    .fil1 {fill:#ECB905;fill-rule:nonzero}
    .fil9 {fill:#DDAC4D;fill-rule:nonzero}
    .fil4 {fill:#DBEFFA;fill-rule:nonzero}
    .fil7 {fill:#D49632;fill-rule:nonzero}
    .fil3 {fill:#C1E5F7;fill-rule:nonzero}
    .fil10 {fill:#8F5428;fill-rule:nonzero}
    .fil13 {fill:#AFDAEF;fill-rule:nonzero}
    .fil11 {fill:#81CEEC;fill-rule:nonzero}
    .fil14 {fill:#6DB6E0;fill-rule:nonzero}
    .fil8 {fill:#4997CE;fill-rule:nonzero}
    .fil2 {fill:#1A4F67;fill-rule:nonzero}
    .fil5 {fill:#663333;fill-rule:nonzero}
   ]]>
  </style>
 </defs>
 <g id="Layer_x0020_1">
  <metadata id="CorelCorpID_0Corel-Layer"/>
  <ellipse class="fil0" cx="1538.36" cy="1560.03" rx="1534.27" ry="1509.72"/>
  <path class="fil1" d="M392.1 1120.74l-11.9 192.98 -139.59 -14.14c0,0 31.03,-124.81 45.25,-164.12 6.78,-18.72 36.82,-23.14 57.84,-23.14 17.35,0 48.4,8.42 48.4,8.42z"/>
  <path class="fil2" d="M334.76 2011.07l-0.19 -64.87 131.96 -0.36c9.89,-0.03 17.91,7.95 17.94,17.84l0.3 107.36c0.07,24.6 -41.68,28.1 -47.02,-15.53 -1.65,-13.73 -7.54,-39.01 -21.36,-42.44 -35.8,-8.83 -81.63,-2 -81.63,-2z"/>
  <path class="fil3" d="M2543.9 677.16l-1988.2 0c-52.28,0 -94.67,42.4 -94.67,94.68l0 1407.51c0,52.3 42.39,94.67 94.67,94.67l1988.2 0c52.28,0 94.67,-42.37 94.67,-94.67l0 -1407.51c0,-52.28 -42.39,-94.68 -94.67,-94.68z"/>
  <path class="fil4" d="M2343.56 760.48l-1688.51 0c-44.42,0 -80.41,37.97 -80.41,84.8l0 1260.65c0,46.83 35.99,84.78 80.41,84.78l1688.51 0c44.41,0 80.41,-37.95 80.41,-84.78l0 -1260.65c0,-46.83 -36,-84.8 -80.41,-84.8z"/>
  <path class="fil5" d="M1590.24 992.82c0,47.76 -38.69,86.45 -86.45,86.45 -47.73,0 -86.45,-38.69 -86.45,-86.45 0,-47.73 38.72,-86.42 86.45,-86.42 47.76,0 86.45,38.69 86.45,86.42z"/>
  <polygon class="fil6" points="1493.94,1040.69 1513.66,1040.69 1513.66,944.96 1493.94,944.96 "/>
  <polygon class="fil6" points="1455.92,1002.69 1551.65,1002.69 1551.65,982.98 1455.92,982.98 "/>
  <path class="fil7" d="M325.97 1296.96l-60.4 -32.16c0,0 -9.73,29.21 -13.22,81.47 -2.17,32.54 38.68,109.42 -4.13,112.91 -42.78,3.52 -9.81,-148.24 -29.2,-167.79 -18.8,-18.96 -79.06,-28.76 -77.98,-0.07 1.08,28.7 46.67,19.53 49.1,33.63 2.42,14.1 -33.57,151.18 34.85,190.81 68.43,39.64 114.41,17.76 117.49,-24.12 3.09,-41.89 -16.51,-194.68 -16.51,-194.68z"/>
  <path class="fil8" d="M341.61 1411.09l189.35 22.08 -48.4 719.54 -63.64 -6.3c4.73,-82.07 6.32,-380.3 11.06,-541.24 1.17,-40.18 -22.59,-46.83 -30.01,-50.07 -24.2,-10.51 -54.66,-13.23 -105.15,43.58 -79.69,89.64 -103.08,109.39 -117.83,178.84 -31.1,146.63 162.02,170.41 162.02,170.41l0 63.12c0,0 -162.02,-6.33 -220.92,-88.38 -36.57,-50.94 -44.97,-144.42 -6.31,-216.69 96.77,-180.95 229.83,-294.89 229.83,-294.89z"/>
  <path class="fil2" d="M417.97 2142.27l64.86 -0.18 0.38 131.95c0.02,9.89 -7.96,17.92 -17.86,17.94l-107.34 0.3c-24.61,0.07 -28.11,-41.7 15.52,-47.02 13.73,-1.67 39.02,-7.54 42.44,-21.34 8.84,-35.81 2,-81.65 2,-81.65z"/>
  <path class="fil1" d="M328.02 1459.18l183.68 17.48c18.91,1.79 35.7,-12.07 37.49,-30.98l50.22 -262.35c1.79,-18.91 -12.08,-35.7 -30.99,-37.51l-216.3 -32.43c-36.8,-1.07 -61.59,31.18 -63.39,50.09l8.3 258.18c-1.79,18.91 12.08,35.7 30.99,37.52z"/>
  <polygon class="fil9" points="412.75,1135.76 481.78,1146.16 498.02,1038.44 429.01,1028.03 "/>
  <path class="fil9" d="M384.88 1021.06c9.15,46.16 54,76.16 100.16,66.99 46.15,-9.17 76.14,-54.02 66.98,-100.16 -9.15,-46.16 -54,-76.16 -100.17,-67 -46.16,9.17 -76.15,54 -66.97,100.17z"/>
  <path class="fil9" d="M528.54 1042.42c2.42,12.24 14.33,20.2 26.57,17.76 12.26,-2.42 20.22,-14.33 17.8,-26.57 -2.44,-12.25 -14.35,-20.22 -26.59,-17.78 -12.26,2.42 -20.22,14.33 -17.78,26.59z"/>
  <path class="fil10" d="M553.06 1014.5c0,-25.26 16.82,-95.73 -57.87,-109.42 -53.96,-9.86 -57.39,2.01 -88.1,-11.56 -33.92,-15 -22.49,-29.15 -25.5,-31.57 -5.27,-4.2 -16.84,9.74 -21.05,33.93 -3.98,22.89 1.05,53.39 31.56,71.28 30.52,17.88 63.12,5.25 95.73,16.84 32.61,11.57 4.94,43.93 4.21,52.58 -0.74,8.65 20.79,18.15 25.25,2.12 10.51,-37.88 35.77,-24.2 35.77,-24.2z"/>
  <path class="fil11" d="M2565.98 1617.61c0,19.16 -15.53,34.71 -34.71,34.71 -19.16,0 -34.71,-15.55 -34.71,-34.71l0 -302.97c0,-19.16 15.55,-34.71 34.71,-34.71 19.18,0 34.71,15.55 34.71,34.71l0 302.97z"/>
  <path class="fil3" d="M338.51 1328.58l-190.48 13.83c-11.13,0.82 -20.84,-7.57 -21.64,-18.7l-7.59 -104.43c-0.81,-11.16 7.59,-20.84 18.72,-21.67l190.45 -13.82c11.16,-0.8 20.84,7.57 21.67,18.72l7.57 104.43c0.82,11.13 -7.57,20.84 -18.7,21.64z"/>
  <path class="fil9" d="M399.67 1121c10.66,24.32 37.11,38.83 64.24,33.44 13.27,-2.63 24.58,-9.62 32.73,-19.18l-96.97 -14.26z"/>
  <path class="fil9" d="M610.4 1329.39c0,0 -58.56,-2.76 -61,4.18 -2.46,6.97 -4.21,134.46 -102.15,120.07 -90.11,-13.23 -121.97,-153.74 -147.31,-171.02 -27.01,-18.39 -73.45,-25.78 -87.02,-9.38 -13.57,16.42 -0.53,33.26 22.79,30.31 23.35,-2.96 42.16,2.93 47.41,11.07 5.45,8.49 34.27,179.02 171.06,205.01 72.64,13.8 143.6,-72.43 156.22,-190.24z"/>
  <path class="fil12" d="M534.73 1160.07c-38.02,44.72 -14.31,181.62 -14.31,181.62l110.11 -4.79c0,0 -0.53,-122.36 -11.48,-161.26 -10.37,-36.82 -68.32,-34.38 -84.32,-15.57z"/>
  <path class="fil5" d="M1810.94 1854.89l-508.37 0c-62.5,0 -113.38,-50.88 -113.38,-113.39l0 -1.68c0,-62.54 50.88,-113.39 113.38,-113.39l508.37 0c16.35,0 29.65,13.26 29.65,29.64 0,16.36 -13.3,29.64 -29.65,29.64l-508.37 0c-29.83,0 -54.09,24.27 -54.09,54.11l0 1.68c0,29.84 24.26,54.11 54.09,54.11l508.37 0c16.35,0 29.65,13.25 29.65,29.64 0,16.37 -13.3,29.64 -29.65,29.64z"/>
  <path class="fil5" d="M1250.79 1685.19c-9.54,0 -18.36,-6.17 -21.28,-15.8l-155.28 -513.61 866.68 0 -98.09 511.38c-2.32,12.05 -13.96,19.96 -26.03,17.65 -12.05,-2.32 -19.93,-13.99 -17.62,-26.03l87.93 -458.55 -752.98 0 137.96 456.31c3.56,11.75 -3.09,24.16 -14.86,27.71l-6.43 0.94z"/>
  <path class="fil5" d="M1104.18 1200.27c-9.13,0 -17.71,-5.69 -20.96,-14.79l-49.58 -139.11 -112.17 0c-12.27,0 -22.23,-9.95 -22.23,-22.22 0,-12.31 9.96,-22.23 22.23,-22.23l143.52 0 60.11 168.62c4.14,11.55 -1.9,24.29 -13.45,28.4l-7.47 1.33z"/>
  <path class="fil5" d="M921.27 1061.2l-120.31 0c-20.46,0 -37.06,-16.6 -37.06,-37.05 0,-20.49 16.6,-37.06 37.06,-37.06l120.31 0c20.46,0 37.06,16.57 37.06,37.06 0,20.45 -16.6,37.05 -37.06,37.05z"/>
  <path class="fil5" d="M1390.79 1975.58c0,56.29 -45.61,101.92 -101.89,101.92 -56.28,0 -101.89,-45.63 -101.89,-101.92 0,-56.25 45.61,-101.89 101.89,-101.89 56.28,0 101.89,45.64 101.89,101.89z"/>
  <path class="fil5" d="M1870.01 1975.58c0,56.29 -45.61,101.92 -101.89,101.92 -56.28,0 -101.89,-45.63 -101.89,-101.92 0,-56.25 45.61,-101.89 101.89,-101.89 56.28,0 101.89,45.64 101.89,101.89z"/>
  <path class="fil8" d="M1336.43 1975.58c0,26.28 -21.28,47.57 -47.53,47.57 -26.25,0 -47.54,-21.29 -47.54,-47.57 0,-26.25 21.29,-47.54 47.54,-47.54 26.25,0 47.53,21.29 47.53,47.54z"/>
  <path class="fil8" d="M1820.63 1975.58c0,26.28 -21.3,47.57 -47.58,47.57 -26.24,0 -47.54,-21.29 -47.54,-47.57 0,-26.25 21.3,-47.54 47.54,-47.54 26.28,0 47.58,21.29 47.58,47.54z"/>
  <path class="fil5" d="M1353.09 1673.01c-10.59,0 -19.99,-7.64 -21.86,-18.45l-79.06 -454.54c-2.1,-12.08 6.01,-23.58 18.11,-25.7 12.08,-2.1 23.61,6.01 25.7,18.11l79.06 454.52c2.1,12.1 -6.01,23.6 -18.12,25.73l-3.83 0.33z"/>
  <path class="fil5" d="M1464.27 1663.11c-11.64,0 -21.39,-9.02 -22.16,-20.77l-29.65 -449.58c-0.8,-12.27 8.46,-22.85 20.71,-23.66 12.24,-0.87 22.83,8.47 23.66,20.74l29.64 449.58c0.8,12.25 -8.46,22.83 -20.74,23.63l-1.46 0.06z"/>
  <path class="fil5" d="M1696.51 1672.97l-3.47 -0.24c-12.14,-1.93 -20.41,-13.29 -18.51,-25.43l71.64 -454.54c1.9,-12.13 13.29,-20.38 25.42,-18.5 12.13,1.93 20.41,13.29 18.5,25.43l-71.63 454.54c-1.74,10.94 -11.2,18.74 -21.95,18.74z"/>
  <path class="fil5" d="M1577.94 1663.11l-1.1 -0.03c-12.27,-0.61 -21.73,-11.03 -21.13,-23.3l22.23 -449.58c0.6,-12.3 11.22,-21.79 23.32,-21.1 12.24,0.58 21.7,11.04 21.1,23.28l-22.23 449.6c-0.6,11.89 -10.42,21.13 -22.19,21.13z"/>
  <path class="fil5" d="M1864.47 1356.81l-711.43 0c-12.3,0 -22.22,-9.96 -22.22,-22.26 0,-12.27 9.92,-22.22 22.22,-22.22l711.43 0c12.27,0 22.22,9.95 22.22,22.22 0,12.3 -9.95,22.26 -22.22,22.26z"/>
  <path class="fil5" d="M1839.76 1514.89l-627.43 0c-12.31,0 -22.23,-9.95 -22.23,-22.23 0,-12.29 9.92,-22.25 22.23,-22.25l627.43 0c12.3,0 22.22,9.96 22.22,22.25 0,12.28 -9.92,22.23 -22.22,22.23z"/>
  <path class="fil13" d="M2109.29 1631.46c0,-30.96 56.06,-159.83 56.06,-159.83 0,0 56.02,128.87 56.02,159.83 0,30.96 -25.09,56.05 -56.02,56.05 -30.97,0 -56.06,-25.09 -56.06,-56.05z"/>
  <polygon class="fil14" points="2168.15,2287.87 2164.75,2284.48 2164.75,1617.47 2168.15,1614.1 2171.53,1617.47 2171.53,2284.48 "/>
  <path class="fil13" d="M2043.58 2109.56c-21.87,-21.87 -73.4,-152.64 -73.4,-152.64 0,0 130.79,51.51 152.66,73.38 21.9,21.89 21.9,57.39 0,79.26 -21.87,21.9 -57.37,21.9 -79.26,0z"/>
  <path class="fil13" d="M2043.58 1861.13c-21.87,-21.9 -73.4,-152.64 -73.4,-152.64 0,0 130.79,51.5 152.66,73.37 21.9,21.9 21.9,57.37 0,79.27 -21.87,21.9 -57.37,21.9 -79.26,0z"/>
  <path class="fil13" d="M2303.51 2109.56c21.88,-21.87 73.38,-152.64 73.38,-152.64 0,0 -130.77,51.51 -152.64,73.38 -21.9,21.89 -21.9,57.39 0,79.26 21.87,21.9 57.37,21.9 79.26,0z"/>
  <path class="fil13" d="M2303.51 1861.13c21.88,-21.9 73.38,-152.64 73.38,-152.64 0,0 -130.77,51.5 -152.64,73.37 -21.9,21.9 -21.9,57.37 0,79.27 21.87,21.9 57.37,21.9 79.26,0z"/>
  <path class="fil5" d="M2077 2198.07l187.69 0c10.28,0 18.15,9.18 16.56,19.34l-27.19 174.42c-1.27,8.17 -8.3,14.17 -16.56,14.17l-133.32 0c-8.25,0 -15.29,-6 -16.56,-14.17l-27.18 -174.42c-1.59,-10.16 6.28,-19.34 16.56,-19.34z"/>
  <polygon class="fil14" points="2165.26,1927.62 2060.25,1806.04 2060.6,1801.25 2065.38,1801.6 2165.62,1917.64 2276.47,1806.82 2281.27,1806.82 2281.27,1811.61 "/>
  <polygon class="fil14" points="2165.26,2162.23 2063.11,2057.33 2063.17,2052.52 2067.96,2052.59 2165.62,2152.87 2279.32,2052.4 2284.1,2052.7 2283.8,2057.49 "/>
 </g>
</svg>
