<?xml version="1.0" encoding="UTF-8"?>
<!DOCTYPE svg PUBLIC "-//W3C//DTD SVG 1.1//EN" "http://www.w3.org/Graphics/SVG/1.1/DTD/svg11.dtd">
<!-- Creator: CorelDRAW 2020 (64-Bit) -->
<svg xmlns="http://www.w3.org/2000/svg" xml:space="preserve" width="30.875mm" height="30.875mm" version="1.1" style="shape-rendering:geometricPrecision; text-rendering:geometricPrecision; image-rendering:optimizeQuality; fill-rule:evenodd; clip-rule:evenodd"
viewBox="0 0 3087.5 3087.5"
 xmlns:xlink="http://www.w3.org/1999/xlink"
 xmlns:xodm="http://www.corel.com/coreldraw/odm/2003">
 <defs>
  <style type="text/css">
   <![CDATA[
    .fil0 {fill:#D14699}
    .fil15 {fill:#FEFEFE;fill-rule:nonzero}
    .fil7 {fill:#FDDA65;fill-rule:nonzero}
    .fil9 {fill:#FDD11E;fill-rule:nonzero}
    .fil6 {fill:#F9BB00;fill-rule:nonzero}
    .fil2 {fill:#DD7224;fill-rule:nonzero}
    .fil14 {fill:#E8F5FC;fill-rule:nonzero}
    .fil3 {fill:#DDAC4D;fill-rule:nonzero}
    .fil13 {fill:#D8EEFB;fill-rule:nonzero}
    .fil10 {fill:#BE8128;fill-rule:nonzero}
    .fil5 {fill:#B37229;fill-rule:nonzero}
    .fil12 {fill:#BEE4F6;fill-rule:nonzero}
    .fil1 {fill:#6DB6E0;fill-rule:nonzero}
    .fil11 {fill:#4997CE;fill-rule:nonzero}
    .fil8 {fill:#1E3849;fill-rule:nonzero}
    .fil4 {fill:#085485;fill-rule:nonzero}
   ]]>
  </style>
 </defs>
 <g id="Layer_x0020_1">
  <metadata id="CorelCorpID_0Corel-Layer"/>
  <ellipse class="fil0" cx="1538.36" cy="1560.03" rx="1534.27" ry="1509.72"/>
  <g id="_2381595954096">
   <path class="fil1" d="M1624.13 228.28c0,34.55 -62.55,178.36 -62.55,178.36 0,0 -62.55,-143.81 -62.55,-178.36 0,-34.53 27.99,-62.53 62.55,-62.53 34.53,0 62.55,28 62.55,62.53z"/>
   <path class="fil1" d="M1310.82 260.02c11.8,32.44 2.21,189 2.21,189 0,0 -107.94,-113.76 -119.78,-146.23 -11.8,-32.45 4.94,-68.35 37.38,-80.16 32.47,-11.8 68.35,4.92 80.19,37.39z"/>
   <path class="fil1" d="M1027.25 396.99c22.2,26.46 66.72,176.83 66.72,176.83 0,0 -140.34,-69.98 -162.55,-96.43 -22.2,-26.46 -18.77,-65.93 7.7,-88.13 26.46,-22.2 65.89,-18.73 88.13,7.73z"/>
   <path class="fil1" d="M807.6 622.67c29.93,17.26 123.21,143.35 123.21,143.35 0,0 -155.83,-17.76 -185.75,-35.02 -29.9,-17.26 -40.14,-55.53 -22.88,-85.43 17.26,-29.92 55.5,-40.17 85.42,-22.9z"/>
   <path class="fil1" d="M678.42 909.89c34.01,5.98 164.78,92.54 164.78,92.54 0,0 -152.49,36.61 -186.49,30.63 -34.04,-6.01 -56.76,-38.44 -50.74,-72.46 6,-34 38.44,-56.72 72.45,-50.71z"/>
   <path class="fil1" d="M655.24 1223.94c34.04,-6.01 186.52,30.63 186.52,30.63 0,0 -130.78,86.57 -164.78,92.55 -34.04,6 -66.48,-16.72 -72.46,-50.72 -6.01,-34.04 16.71,-66.45 50.72,-72.46z"/>
   <path class="fil1" d="M925.01 1782.47c22.2,-26.46 162.58,-96.44 162.58,-96.44 0,0 -44.55,150.38 -66.76,176.84 -22.2,26.47 -61.62,29.92 -88.09,7.73 -26.46,-22.24 -29.93,-61.66 -7.73,-88.13z"/>
   <path class="fil1" d="M1185.44 1959.58c11.8,-32.47 119.77,-146.23 119.77,-146.23 0,0 9.57,156.53 -2.25,189.01 -11.8,32.43 -47.71,49.18 -80.14,37.37 -32.48,-11.8 -49.22,-47.71 -37.38,-80.15z"/>
   <path class="fil1" d="M1490.69 2036.92c0,-34.54 62.55,-178.37 62.55,-178.37 0,0 62.55,143.83 62.55,178.37 0,34.55 -28.03,62.54 -62.55,62.54 -34.56,0 -62.55,-27.99 -62.55,-62.54z"/>
   <path class="fil1" d="M1804 2005.21c-11.8,-32.48 -2.21,-189.01 -2.21,-189.01 0,0 107.94,113.76 119.78,146.23 11.8,32.44 -4.94,68.35 -37.38,80.15 -32.47,11.82 -68.35,-4.93 -80.19,-37.37z"/>
   <path class="fil1" d="M2183.4 1787.84c22.2,26.46 18.77,65.89 -7.7,88.09 -26.46,22.2 -65.93,18.77 -88.13,-7.7l95.83 -80.39z"/>
   <path class="fil1" d="M2307.22 1642.52c-29.93,-17.26 -123.21,-143.31 -123.21,-143.31 0,0 155.83,17.72 185.76,35.01 29.9,17.27 40.14,55.51 22.87,85.43 -17.26,29.89 -55.53,40.17 -85.42,22.87z"/>
   <path class="fil1" d="M2436.4 1355.33c-34,-5.98 -164.78,-92.57 -164.78,-92.57 0,0 152.49,-36.61 186.49,-30.6 34.04,5.98 56.72,38.42 50.74,72.45 -6,34.01 -38.44,56.73 -72.45,50.72z"/>
   <path class="fil1" d="M2373.94 738.24c-29.93,17.26 -185.76,35.02 -185.76,35.02 0,0 93.28,-126.1 123.21,-143.36 29.89,-17.26 68.16,-7.02 85.43,22.88 17.26,29.93 7.02,68.16 -22.88,85.46z"/>
   <path class="fil1" d="M2189.81 482.75c-22.2,26.47 -162.57,96.44 -162.57,96.44 0,0 44.54,-150.37 66.75,-176.83 22.2,-26.47 61.62,-29.94 88.09,-7.73 26.46,22.2 29.93,61.66 7.73,88.12z"/>
   <path class="fil1" d="M1929.38 305.64c-11.8,32.47 -119.76,146.23 -119.76,146.23 0,0 -9.57,-156.56 2.23,-189 11.81,-32.47 47.72,-49.19 80.16,-37.38 32.47,11.8 49.18,47.71 37.37,80.15z"/>
   <path class="fil2" d="M2216 958.55c4.68,-28.21 28.72,-245.94 159.93,-263.42 141.11,-18.83 210.11,34.49 219.52,156.81 9.42,122.28 -18.82,191.31 -18.82,191.31l-360.63 -84.7z"/>
   <path class="fil3" d="M2170.8 1486.97l261.86 31.37c0,0 -8.93,352.04 -30.85,618.59 -14.04,170.37 11.75,353.58 11.75,353.58l-94.08 -1.56c-6.28,-79.97 -40.5,-446.89 -41.88,-692.92 -0.34,-59.92 -3.04,-93.99 -14.11,-98.8 -36.06,-15.67 -67.61,-4.84 -106.83,64.14 -24.59,43.33 -29.47,201.25 -27.1,366.18 3.09,215.26 18.55,357.78 18.55,357.78l-96.69 -0.62c0,0 -67.3,-546.96 -18.88,-745.26 18.18,-74.57 138.26,-252.48 138.26,-252.48z"/>
   <path class="fil4" d="M2319.54 2484.71l96.68 0.62 -1.19 196.67c-0.09,14.75 -12.11,26.62 -26.83,26.53l-160.03 -0.98c-36.67,-0.24 -41.33,-62.52 23.76,-69.88 20.49,-2.31 58.26,-10.74 63.54,-31.28 13.67,-53.26 4.07,-121.68 4.07,-121.68z"/>
   <path class="fil4" d="M2051.42 2484.71l96.69 0.62 -1.23 196.67c-0.1,14.75 -12.08,26.62 -26.83,26.53l-160 -0.98c-36.67,-0.24 -41.33,-62.52 23.76,-69.88 20.49,-2.31 58.26,-10.74 63.54,-31.28 13.64,-53.26 4.07,-121.68 4.07,-121.68z"/>
   <path class="fil5" d="M838.21 936.78c-10.92,21.96 3.55,244.2 114.74,336.59 181.03,150.46 474.91,101.99 515.33,93.22 57.52,-12.51 147.51,20.23 195.38,-26.74 31.34,-30.79 26.52,-59.46 -91.07,-40.97 -117.6,18.49 -97.27,13.37 -155.31,10.83 -188.95,-8.29 -314.66,-62.04 -361.64,-113.92 -68.87,-76.01 -82.3,-169.74 -82.3,-169.74l-135.13 -89.27z"/>
   <path class="fil6" d="M726.59 980.07l199.19 259.54 141.29 -108.39 -147.27 -209.74c-10.88,-14.04 -41.67,-38.39 -56.11,-28.06l-137.1 86.65z"/>
   <path class="fil6" d="M899.38 1377.08l-283.88 34c0,0 23.79,382.49 47.59,671.49 15.21,184.68 32.32,389.61 32.32,389.61l101.98 -1.69c6.81,-86.71 -15.3,-491.62 -13.79,-758.39 0.33,-64.95 3.27,-101.86 15.29,-107.11 39.1,-16.99 73.29,-5.21 115.79,69.58 61.51,108.27 153.01,227.79 205.72,409.69 74.64,257.63 0.28,313.99 0.28,313.99l94.9 41.64c0,0 102.01,-126.12 15.3,-421.92 -76.29,-260.37 -331.5,-640.89 -331.5,-640.89z"/>
   <path class="fil7" d="M1218.43 2436.06l-97.75 -37.81 -76.91 198.91c-5.74,14.87 1.66,31.61 16.56,37.38l161.81 62.55c37.1,14.35 66.51,-46.66 3.77,-79.91 -19.75,-10.46 -54.52,-33.97 -51.66,-56.78 7.36,-59.15 44.18,-124.34 44.18,-124.34z"/>
   <path class="fil8" d="M2211.27 1473.66c-18.79,9.42 -162.27,101.13 -218.72,385.74 -45.25,228.14 -65.1,450.82 -52.52,450.82 12.53,0 551.94,31.33 558.19,3.12 6.28,-28.24 -29.77,-153.69 -32.9,-272.83 -3.16,-119.16 39.18,-511.19 -32.94,-555.11 -72.15,-43.91 -221.11,-11.74 -221.11,-11.74z"/>
   <path class="fil7" d="M799.29 2465.89l-104.8 0.64 1.32 213.27c0.09,15.95 13.12,28.82 29.1,28.73l173.45 -1.08c39.78,-0.24 44.81,-67.79 -25.75,-75.73 -22.2,-2.52 -63.16,-11.65 -68.87,-33.91 -14.81,-57.75 -4.45,-131.92 -4.45,-131.92z"/>
   <path class="fil9" d="M900.48 1445.45l-295.29 41.46c-30.38,4.26 -58.5,-16.92 -62.76,-47.31l-99.93 -419.93c-4.26,-30.39 39.16,-77.09 69.3,-82.89 85.3,-16.4 257.17,-52.86 352.53,-52.16 30.6,0.25 74.03,50.26 78.28,80.64l5.18 417.46c4.27,30.39 -16.92,58.47 -47.31,62.73z"/>
   <path class="fil10" d="M595.94 1181.56c-8.41,23.03 42.04,254.35 162.75,333.89 196.55,129.53 462.72,48.61 501.94,35.42 55.77,-18.8 134.45,9.08 176.8,-42.89 27.74,-34.04 20.51,-79.82 -94.35,-48.45 -114.84,31.37 -81.47,36.55 -139.43,40.44 -188.7,12.67 -319.57,-26.89 -372.04,-73.25 -76.84,-67.96 -120.9,-255.34 -120.9,-255.34l-114.77 10.18z"/>
   <path class="fil7" d="M598.48 962.29c85.25,26.43 170.86,272.84 170.86,272.84l-169.11 69.02c0,0 -105.05,-171.37 -111.37,-283.23 -2.57,-45.11 71.54,-70.46 109.62,-58.63z"/>
   <path class="fil10" d="M755.35 896.4c-18.33,34.64 -56.22,55.46 -96.15,49.15 -19.74,-3.1 -37.1,-12.38 -50.5,-25.64l146.65 -23.51z"/>
   <polygon class="fil10" points="740.42,903.94 629.73,925.71 595.72,752.99 706.42,731.22 "/>
   <path class="fil10" d="M772.07 709.1c-11.47,75.2 -81.72,126.83 -156.91,115.36 -75.16,-11.46 -126.82,-81.72 -115.36,-156.87 11.5,-75.18 81.73,-126.82 156.91,-115.36 75.19,11.47 126.82,81.72 115.36,156.87z"/>
   <path class="fil7" d="M498.68 699.8l269.49 -49.96c-14.54,-49.81 -56.77,-89.26 -111.46,-97.61 -75.18,-11.46 -145.43,40.18 -156.91,115.36 -1.66,10.9 -1.99,21.69 -1.12,32.21z"/>
   <path class="fil10" d="M541.66 753.94c-3.03,19.96 -21.67,33.67 -41.64,30.6 -19.93,-3.04 -33.64,-21.68 -30.6,-41.64 3.04,-19.97 21.68,-33.67 41.64,-30.61 19.97,3.05 33.67,21.68 30.6,41.65z"/>
   <path class="fil6" d="M767.34 649.93c0,0 141.05,33.54 103.62,75.98 -37.41,42.47 -370.96,-25.64 -370.96,-25.64l267.34 -50.34z"/>
   <path class="fil11" d="M853.08 1019.94c2.55,12.14 -5.24,24.04 -17.36,26.58l-72.52 15.18c-12.14,2.55 -24.04,-5.21 -26.58,-17.35 -2.54,-12.14 5.25,-24.04 17.35,-26.59l72.52 -15.17c12.14,-2.55 24.04,5.2 26.59,17.35z"/>
   <path class="fil3" d="M2246.23 1092.4c8.67,20.88 -18.15,224.55 -126.12,302.79 -175.8,127.44 -443.3,64.95 -479.97,54.4 -52.19,-15.02 -137.04,9.63 -178.18,-36.52 -26.98,-30.2 -20.82,-56.32 86.28,-32.13 107.11,24.16 88.71,18.21 142.28,19.41 174.41,3.89 293.39,-37.94 339.81,-82.82 68.01,-65.78 86.07,-151.23 86.07,-151.23l129.83 -73.9z"/>
   <path class="fil12" d="M2330.16 1120.79l-142.4 279.96 -171.62 -140.56 135.83 -193.43c10.02,-12.97 38.42,-35.45 51.75,-25.88l126.44 79.91z"/>
   <path class="fil13" d="M2145.44 1563.05l296.72 25.23c28.03,3.96 53.94,-15.57 57.86,-43.63l76.61 -325.8c15.57,-76.13 -20.52,-132.65 -48.33,-137.98 -78.68,-15.12 -237.21,-48.76 -325.16,-48.11 -28.24,0.21 -89.62,143.84 -90.64,175.11 -1.19,36.25 27.63,117.01 33.95,152.34 5.89,32.83 -20.3,131.97 -20.3,131.97 -3.96,28.03 -8.77,66.91 19.29,70.87z"/>
   <path class="fil3" d="M2455.08 1299.61c5.79,21.87 -59.83,230.13 -177.36,293.11 -191.37,102.6 -429.1,6.08 -464.03,-9.31 -49.67,-21.92 -137.06,-8.93 -171.62,-60.2 -22.66,-33.61 -13.03,-58.62 89.85,-20.23 102.87,38.38 85.42,30.01 138.35,38.42 172.29,27.35 295.8,1.96 347.87,-36.27 76.26,-56 132.37,-224.46 132.37,-224.46l104.57 18.94z"/>
   <path class="fil14" d="M2448.33 1104.39c-78.62,24.38 -157.58,251.64 -157.58,251.64l155.98 63.7c0,0 96.9,-158.07 102.72,-261.25 2.37,-41.61 -65.98,-65.01 -101.12,-54.09z"/>
   <path class="fil3" d="M2303.66 1043.61c16.9,31.95 51.85,51.15 88.68,45.36 18.22,-2.87 34.22,-11.44 46.59,-23.68l-135.27 -21.68z"/>
   <polygon class="fil3" points="2317.42,1050.57 2419.5,1070.65 2450.87,911.33 2348.79,891.24 "/>
   <path class="fil3" d="M2288.24 870.85c10.57,69.36 75.36,116.99 144.7,106.41 69.35,-10.58 116.98,-75.37 106.4,-144.71 -10.58,-69.36 -75.37,-116.97 -144.71,-106.39 -69.35,10.57 -116.97,75.36 -106.39,144.69z"/>
   <path class="fil3" d="M2500.74 912.19c2.81,18.43 20.01,31.06 38.41,28.24 18.41,-2.79 31.06,-19.99 28.24,-38.39 -2.82,-18.43 -19.99,-31.06 -38.41,-28.24 -18.4,2.79 -31.03,19.99 -28.24,38.39z"/>
   <path class="fil1" d="M1823.2 1513.64l-540.99 0c-40.26,0 -72.92,-32.65 -72.92,-72.91l0 -559.79c0,-40.28 32.66,-72.91 72.92,-72.91l540.99 0c40.26,0 72.92,32.63 72.92,72.91l0 559.79c0,40.26 -32.66,72.91 -72.92,72.91z"/>
   <path class="fil2" d="M2341.44 723.33c-25.12,12.58 -72.15,78.41 -59.61,81.57 12.57,3.13 200.72,59.58 210.14,59.58 9.41,0 34.49,-69 56.44,-72.13 21.96,-3.15 15.67,-40.78 -53.32,-69.02 -68.99,-28.2 -153.65,0 -153.65,0z"/>
   <polygon class="fil15" points="1209.29,928.75 1896.12,927.44 1896.12,936.48 1209.29,937.79 "/>
   <path class="fil9" d="M1774.32 1356.03l-81.01 0c-7.05,0 -12.79,-5.7 -12.79,-12.78l0 -157.73c0,-7.05 5.74,-12.79 12.79,-12.79l81.01 0c7.06,0 12.79,5.74 12.79,12.79l0 157.73c0,7.08 -5.73,12.78 -12.79,12.78z"/>
  </g>
 </g>
</svg>
