<svg xmlns="http://www.w3.org/2000/svg" encoding="UTF-8" xmlns:xlink="http://www.w3.org/1999/xlink" viewBox="0 0 1366 538"><defs><clipPath id="a" transform="translate(0 -1)"><rect x="62.24" y="189.69" width="266.16" height="176.56" rx="5" ry="5" style="fill:none" /></clipPath><clipPath id="b" transform="translate(0 -1)"><rect x="506.97" y="58.11" width="293.3" height="194.57" rx="5" ry="5" style="fill:none" /></clipPath><clipPath id="c" transform="translate(0 -1)"><rect x="476.4" y="72.98" width="293.3" height="194.57" rx="5" ry="5" style="fill:none" /></clipPath><clipPath id="d" transform="translate(0 -1)"><rect x="512.93" y="76.4" width="293.3" height="194.57" rx="5" ry="5" style="fill:none" /></clipPath><clipPath id="e" transform="translate(0 -1)"><rect x="529.07" y="66.74" width="293.3" height="194.57" rx="5" ry="5" style="fill:none" /></clipPath><clipPath id="f" transform="translate(0 -1)"><rect x="590.03" y="145.69" width="293.3" height="194.57" rx="5" ry="5" style="fill:none" /></clipPath><clipPath id="g" transform="translate(0 -1)"><rect x="583.26" y="120.41" width="293.3" height="194.57" rx="5" ry="5" style="fill:none" /></clipPath><clipPath id="h" transform="translate(0 -1)"><rect x="675.38" y="111.94" width="293.3" height="194.57" rx="5" ry="5" style="fill:none" /></clipPath><clipPath id="i" transform="translate(0 -1)"><rect x="398.32" y="125.41" width="293.3" height="194.57" rx="5" ry="5" style="fill:none" /></clipPath><clipPath id="j" transform="translate(0 -1)"><rect x="414.24" y="156.81" width="256.14" height="193.27" rx="10" ry="10" style="fill:none" /></clipPath><clipPath id="k" transform="translate(0 -1)"><rect x="632.89" y="92.1" width="260.19" height="193.41" rx="10" ry="10" style="fill:none" /></clipPath><clipPath id="l" transform="translate(0 -1)"><rect x="653.04" y="97.43" width="260.19" height="193.41" rx="10" ry="10" style="fill:none" /></clipPath><clipPath id="m" transform="translate(0 -1)"><rect x="879.52" y="178.75" width="260.19" height="193.41" rx="10" ry="10" style="fill:none" /></clipPath><style>
.medan-gallery-list{display:none}.medan-gallery:hover .medan-gallery-list{cursor:pointer;display:block;z-index:99999}.jakarta-gallery-list{display:none}.jakarta-gallery:hover .jakarta-gallery-list{cursor:pointer;display:block;z-index:99999}.tangerang-gallery-list{display:none}.tangerang-gallery:hover .tangerang-gallery-list{cursor:pointer;display:block;z-index:99999}.bekasi-gallery-list{display:none}.bekasi-gallery:hover .bekasi-gallery-list{cursor:pointer;display:block;z-index:99999}.cibubur-gallery-list{display:none}.cibubur-gallery:hover .cibubur-gallery-list{cursor:pointer;display:block;z-index:99999}.bandung-gallery-1-list{display:none}.bandung-gallery-1:hover .bandung-gallery-1-list{cursor:pointer;display:block;z-index:99999}.bandung-gallery-2-list{display:none}.bandung-gallery-2:hover .bandung-gallery-2-list{cursor:pointer;display:block;z-index:99999}.head-office-list{display:none}.head-office:hover .head-office-list{cursor:pointer;display:block;z-index:99999}.semarang-gallery-list{display:none}.semarang-gallery:hover .semarang-gallery-list{cursor:pointer;display:block;z-index:99999}.yogyakarta-gallery-list{display:none}.yogyakarta-gallery:hover .yogyakarta-gallery-list{cursor:pointer;display:block;z-index:99999}.surabaya-gallery-1-list{display:none}.surabaya-gallery-1:hover .surabaya-gallery-1-list{cursor:pointer;display:block;z-index:99999}.surabaya-gallery-2-list{display:none}.surabaya-gallery-2:hover .surabaya-gallery-2-list{cursor:pointer;display:block;z-index:99999}.bali-gallery-list{display:none}.bali-gallery:hover .bali-gallery-list{cursor:pointer;display:block;z-index:99999}.head-office:hover~.yogyakarta-gallery{display:none}.head-office:hover~.semarang-gallery{display:none}.head-office:hover~.surabaya-gallery-1{display:none}.head-office:hover~.surabaya-gallery-2{display:none}.bandung-gallery-1:hover~.head-office{display:none}.bandung-gallery-1:hover~.yogyakarta-gallery{display:none}.bandung-gallery-1:hover~.semarang-gallery{display:none}.bandung-gallery-2:hover~.head-office{display:none}.bandung-gallery-2:hover~.yogyakarta-gallery{display:none}.bandung-gallery-2:hover~.semarang-gallery{display:none}.bekasi-gallery:hover~.head-office{display:none}.bekasi-gallery:hover~.yogyakarta-gallery{display:none}.bekasi-gallery:hover~.semarang-gallery{display:none}.bekasi-gallery:hover~.bandung-gallery-1{display:none}.cibubur-gallery:hover~.head-office{display:none}.cibubur-gallery:hover~.yogyakarta-gallery{display:none}.cibubur-gallery:hover~.semarang-gallery{display:none}.cibubur-gallery:hover~.bandung-gallery-1{display:none}.cibubur-gallery:hover~.bandung-gallery-2{display:none}.cibubur-gallery:hover~.bekasi-gallery{display:none}.jakarta-gallery:hover~.head-office{display:none}.jakarta-gallery:hover~.yogyakarta-gallery{display:none}.jakarta-gallery:hover~.semarang-gallery{display:none}.jakarta-gallery:hover~.bandung-gallery-1{display:none}.jakarta-gallery:hover~.bandung-gallery-2{display:none}.jakarta-gallery:hover~.bekasi-gallery{display:none}.tangerang-gallery:hover~.head-office{display:none}.tangerang-gallery:hover~.yogyakarta-gallery{display:none}.tangerang-gallery:hover~.semarang-gallery{display:none}.tangerang-gallery:hover~.bandung-gallery-1{display:none}.tangerang-gallery:hover~.bandung-gallery-2{display:none}.tangerang-gallery:hover~.bekasi-gallery{display:none}.tangerang-gallery:hover~.cibubur-gallery{display:none}</style></defs><title>Showroom S-Plus</title><rect width="1366" height="538" style="fill:#aadaff" /><image width="1234" height="409" transform="translate(266 195.9) scale(0.73)" xlink:href="maps1.webp" /><image width="522" height="367" transform="translate(1072 384) scale(0.33)" xlink:href="maps2.webp" /><image width="879" height="286" transform="translate(0 124) scale(0.32)" xlink:href="maps3.webp" /><g class="medan-gallery"><path d="M201.11,119.2c-7.67,0-16.7,4.72-13.77,16.72,1.88,7.68,13.77,30.3,13.77,30.3s11.52-22.62,13.39-30.3C217.44,123.92,208.77,119.2,201.11,119.2Zm-.19,21.94a8.36,8.36,0,1,1,8.36-8.36A8.36,8.36,0,0,1,200.92,141.14Z" transform="translate(0 -1)" style="fill:#960c0c" /><circle cx="200.92" cy="131.78" r="8.36" style="fill:#fff" /><g class="medan-gallery-list"><path d="M26.75,174.37l135.81.69a12.07,12.07,0,0,0,10.85-6.85L190.68,133a11.9,11.9,0,0,1,21.07-.92l22.42,37.51a12,12,0,0,0,10.23,5.93l129.06.65a12.28,12.28,0,0,1,12,12.55L384,474.51a12.3,12.3,0,0,1-12.15,12.43L25.18,485.19a12.29,12.29,0,0,1-12-12.56L14.6,186.81A12.31,12.31,0,0,1,26.75,174.37Z" transform="translate(0 -1)" style="stroke:#960c0c;stroke-miterlimit:10;stroke-width:3px" /><text transform="translate(125.97 390.35)" style="font-size:19.981929779052734px;fill:#f9f9f9;font-family:Calibri, Calibri">ME
                <tspan x="26.84" y="0" style="letter-spacing:-0.014637248353090018em">D</tspan><tspan x="38.84" y="0">AN GALLE</tspan><tspan x="118.54" y="0" style="letter-spacing:-0.014637248353090018em">R</tspan><tspan x="129.1" y="0">Y</tspan></text><g style="clip-path:url(#a)"><image width="1032" height="774" transform="translate(50.75 164.66) scale(0.29)" xlink:href="showroom/medan.webp" /></g><text transform="translate(85.34 416.5)" style="font-size:15.331899642944336px;fill:#fff;font-family:Calibri, Calibri">Jl. Cema
                <tspan x="51.14" y="0" style="letter-spacing:-0.020509730191503685em">r</tspan><tspan x="56.17" y="0">a No 63 </tspan><tspan x="107.44" y="0" style="letter-spacing:-0.01805747984251955em">K</tspan><tspan x="115.12" y="0">ec. Medan Timu</tspan><tspan x="215.52" y="0" style="letter-spacing:-0.08592430443583375em">r</tspan><tspan x="219.55" y="0">, </tspan><tspan x="91.33" y="18.4">Medan</tspan></text><a href="/hubungi-kami/gallery-medan" target="_PARENT"><text transform="translate(133.9 468.53)" style="font-size:17.204360961914062px;fill:#fff;font-family:Calibri, Calibri">Lih
                <tspan x="20.22" y="0" style="letter-spacing:-0.009280668378410739em">a</tspan><tspan x="28.3" y="0" style="letter-spacing:0.000028381248863641403em">t Sh</tspan><tspan x="54.9" y="0" style="letter-spacing:-0.0039166123431825135em">o</tspan><tspan x="63.9" y="0" style="letter-spacing:0.000028381248863641403em">w</tspan><tspan x="76.2" y="0" style="letter-spacing:-0.016120549354548316em">r</tspan><tspan x="81.92" y="0" style="letter-spacing:-0.000028381248863641403em">oom</tspan></text></a></g></g><g class="jakarta-gallery"><path d="M422.38,195c-8.44,0-18.4,5.2-15.17,18.42,2.07,8.46,15.17,33.39,15.17,33.39s12.7-24.93,14.77-33.39C440.38,200.21,430.83,195,422.38,195Zm-.2,24.18a9.21,9.21,0,1,1,9.21-9.21A9.21,9.21,0,0,1,422.18,219.19Z" transform="translate(0 -1)" style="fill:#960c0c" /><circle cx="422.18" cy="208.98" r="9.21" style="fill:#fff" /><g class="jakarta-gallery-list"><path d="M470.09,378.35l-.17-131c0-4.42-3.13-8.45-8.08-10.42l-41.3-16.43c-10.2-4.06-10.89-15.48-1.24-20.32L463,178.3c4.27-2.14,6.85-5.88,6.85-9.9l-.16-124.5c0-6.44,6.52-11.67,14.58-11.68l333.93-.44c8.06,0,14.61,5.2,14.61,11.64l.44,334.46c0,6.44-6.52,11.67-14.58,11.68L484.71,390C476.64,390,470.1,384.79,470.09,378.35Z" transform="translate(0 -1)" style="stroke:#960c0c;stroke-miterlimit:10;stroke-width:3px" /><text transform="translate(572.59 279.34)" style="font-size:22.01926040649414px;fill:#f9f9f9;font-family:Calibri, Calibri"><tspan style="letter-spacing:-0.01707489513994363em">J</tspan><tspan x="6.64" y="0">AKA</tspan><tspan x="43.57" y="0" style="letter-spacing:-0.009757082937110646em">R</tspan><tspan x="55.31" y="0" style="letter-spacing:-0.0781453642508589em">T</tspan><tspan x="64.32" y="0">A GALLE</tspan><tspan x="137.93" y="0" style="letter-spacing:-0.014635624405665968em">R</tspan><tspan x="149.57" y="0">Y</tspan></text><g style="clip-path:url(#b)"><image width="1040" height="780" transform="translate(505.82 30.63) scale(0.29)" xlink:href="showroom/jakarta.webp" /></g><text transform="translate(510.88 308.16)" style="font-size:16.895130157470703px;fill:#fff;font-family:Calibri, Calibri">Jl. Pinangsia R
                <tspan x="95.32" y="0" style="letter-spacing:-0.018496454131299987em">a</tspan><tspan x="103.1" y="0" style="letter-spacing:-0.015143971820001864em">y</tspan><tspan x="110.5" y="0">a No. 105 Pinangsia Ba</tspan><tspan x="265.9" y="0" style="letter-spacing:-0.020577305221071235em">r</tspan><tspan x="271.44" y="0" style="letter-spacing:-0.009248227065649994em">a</tspan><tspan x="279.38" y="0">t, </tspan><tspan x="102.22" y="20.27">Ja</tspan><tspan x="115.7" y="20.27" style="letter-spacing:-0.017109220071452488em">k</tspan><tspan x="123.09" y="20.27">ar</tspan><tspan x="137.07" y="20.27" style="letter-spacing:-0.012196099442825929em">t</tspan><tspan x="142.52" y="20.27">a Ba</tspan><tspan x="171.72" y="20.27" style="letter-spacing:-0.020577305221071235em">r</tspan><tspan x="177.26" y="20.27" style="letter-spacing:-0.009248227065649994em">a</tspan><tspan x="185.2" y="20.27">t</tspan></text><a href="/hubungi-kami/gallery-jakarta" target="_PARENT"><text transform="translate(585.94 365.49)" style="font-size:18.958499908447266px;fill:#fff;font-family:Calibri, Calibri">Lih
                <tspan x="22.28" y="0" style="letter-spacing:-0.009271896555574938em">a</tspan><tspan x="31.19" y="0" style="letter-spacing:-0.000051510536419860774em">t Sh</tspan><tspan x="60.5" y="0" style="letter-spacing:-0.003914800767909419em">o</tspan><tspan x="70.42" y="0" style="letter-spacing:-0.000051510536419860774em">w</tspan><tspan x="83.97" y="0" style="letter-spacing:-0.01607128736299656em">r</tspan><tspan x="90.28" y="0" style="letter-spacing:-0.000051510536419860774em">oom</tspan></text></a></g></g><g class="tangerang-gallery"><path d="M406.82,216.57c-8.45,0-18.4,5.21-15.17,18.42,2.07,8.46,15.17,33.39,15.17,33.39s12.69-24.93,14.76-33.39C424.82,221.78,415.27,216.57,406.82,216.57Zm-.2,24.18a9.21,9.21,0,1,1,9.21-9.21A9.21,9.21,0,0,1,406.62,240.75Z" transform="translate(0 -1)" style="fill:#960c0c" /><circle cx="406.62" cy="230.54" r="9.21" style="fill:#fff" /><g class="tangerang-gallery-list"><path d="M451.54,402.74l.37-133.28c0-4.5-2.93-8.61-7.58-10.63L405.44,242c-9.61-4.17-10.22-15.79-1.09-20.68l41.28-22.08a11.59,11.59,0,0,0,6.5-10l.34-126.66c0-6.55,6.2-11.85,13.8-11.83l315,.87c7.61,0,13.76,5.35,13.74,11.9l-.93,340.25c0,6.55-6.2,11.85-13.8,11.82l-315-.86C457.67,414.62,451.52,409.29,451.54,402.74Z" transform="translate(0 -1)" style="stroke:#960c0c;stroke-miterlimit:10;stroke-width:3px" /><text transform="translate(523.61 296.2)" style="font-size:22.01926040649414px;fill:#f9f9f9;font-family:Calibri, Calibri"><tspan style="letter-spacing:-0.07812318906236547em">T</tspan><tspan x="9.01" y="0" style="letter-spacing:-0.000022175188493433285em">ANGERANG GALLE</tspan><tspan x="174.28" y="0" style="letter-spacing:-0.014679974782652835em">R</tspan><tspan x="185.92" y="0">Y</tspan></text><g style="clip-path:url(#c)"><image width="1152" height="864" transform="translate(472.95 57.01) scale(0.26)" xlink:href="showroom/tangerang.webp" /></g><text transform="translate(499.3 323.02)" style="font-size:16.895130157470703px;fill:#fff;font-family:Calibri, Calibri">Jl. Boul
                <tspan x="48.2" y="0" style="letter-spacing:-0.004855319209466247em">e</tspan><tspan x="56.53" y="0" style="letter-spacing:-0.014681560466719366em">v</tspan><tspan x="63.91" y="0">a</tspan><tspan x="72" y="0" style="letter-spacing:-0.013698936340994054em">r</tspan><tspan x="77.66" y="0">d R</tspan><tspan x="99.53" y="0" style="letter-spacing:-0.0185542555504603em">a</tspan><tspan x="107.31" y="0" style="letter-spacing:-0.015143971820001864em">y</tspan><tspan x="114.7" y="0">a Ru</tspan><tspan x="144.66" y="0" style="letter-spacing:-0.033698227370462165em">k</tspan><tspan x="151.78" y="0" style="letter-spacing:0.00005780141916031246em">o 1B Blok </tspan><tspan x="219.55" y="0" style="letter-spacing:-0.009768439838092806em">B</tspan><tspan x="228.58" y="0" style="letter-spacing:0.005895744754351871em">A</tspan><tspan x="238.45" y="0">.3 </tspan><tspan x="26.38" y="20.27">No 54-55 Serpon</tspan><tspan x="141.98" y="20.27" style="letter-spacing:0.011213475317100617em">g</tspan><tspan x="150.12" y="20.27">, </tspan><tspan x="158.16" y="20.27" style="letter-spacing:-0.07814751870474244em">T</tspan><tspan x="165.07" y="20.27">an</tspan><tspan x="182.04" y="20.27" style="letter-spacing:-0.008265602939924682em">g</tspan><tspan x="189.85" y="20.27">e</tspan><tspan x="198.26" y="20.27" style="letter-spacing:-0.020519503801910925em">r</tspan><tspan x="203.8" y="20.27">ang</tspan></text><a href="/hubungi-kami/gallery-tangerang" target="_PARENT"><text transform="translate(555.38 380.35)" style="font-size:18.958499908447266px;fill:#fff;font-family:Calibri, Calibri">Lih
                <tspan x="22.28" y="0" style="letter-spacing:-0.009271896555574938em">a</tspan><tspan x="31.19" y="0" style="letter-spacing:-0.000051510536419860774em">t Sh</tspan><tspan x="60.5" y="0" style="letter-spacing:-0.003914800767909419em">o</tspan><tspan x="70.42" y="0" style="letter-spacing:-0.000051510536419860774em">w</tspan><tspan x="83.97" y="0" style="letter-spacing:-0.01607128736299656em">r</tspan><tspan x="90.28" y="0" style="letter-spacing:-0.000051510536419860774em">oom</tspan></text></a></g></g><g class="cibubur-gallery"><path d="M434.34,214.69c-8.45,0-18.4,5.2-15.17,18.42,2.07,8.46,15.17,33.39,15.17,33.39s12.7-24.93,14.77-33.39C452.34,219.89,442.79,214.69,434.34,214.69Zm-.2,24.18a9.21,9.21,0,1,1,9.21-9.21A9.21,9.21,0,0,1,434.14,238.87Z" transform="translate(0 -1)" style="fill:#960c0c" /><circle cx="434.14" cy="228.66" r="9.21" style="fill:#fff" /><g class="cibubur-gallery-list"><path d="M481.61,404.31l.51-136.22c0-4.59-3.06-8.8-7.95-10.88l-40.83-17.29c-10.08-4.27-10.71-16.15-1.12-21.13l43.37-22.52c4.24-2.2,6.82-6.08,6.84-10.26l.48-129.45c0-6.7,6.52-12.1,14.5-12.07L828.2,45.73c8,0,14.44,5.48,14.41,12.17l-1.3,347.75c0,6.7-6.52,12.1-14.5,12.07L496,416.48C488,416.45,481.58,411,481.61,404.31Z" transform="translate(0 -1)" style="stroke:#960c0c;stroke-miterlimit:10;stroke-width:3px" /><text transform="translate(578.55 297.62)" style="font-size:22.01926040649414px;fill:#f9f9f9;font-family:Calibri, Calibri">CIBUBUR GALLE
                <tspan x="142.33" y="0" style="letter-spacing:-0.014635624405665968em">R</tspan><tspan x="153.96" y="0" style="letter-spacing:-0.00004435037698686657em">Y</tspan></text><g style="clip-path:url(#d)"><image width="3264" height="2448" transform="translate(511.77 67.34) scale(0.09)" xlink:href="showroom/cibubur.webp" /></g><text transform="translate(500.01 326.45)" style="font-size:16.895130157470703px;fill:#fff;font-family:Calibri, Calibri">Ru
                <tspan x="18.05" y="0" style="letter-spacing:-0.033698227370462165em">k</tspan><tspan x="25.16" y="0">o Cit</tspan><tspan x="56.44" y="0" style="letter-spacing:-0.020577305221071235em">r</tspan><tspan x="61.98" y="0" style="letter-spacing:0.00005780141916031246em">a G</tspan><tspan x="84.55" y="0" style="letter-spacing:-0.020519503801910925em">r</tspan><tspan x="90.09" y="0">an, Blok R6/35 Jl. R</tspan><tspan x="220.3" y="0" style="letter-spacing:-0.0185542555504603em">a</tspan><tspan x="228.08" y="0" style="letter-spacing:-0.015143971820001864em">y</tspan><tspan x="235.48" y="0">a Al</tspan><tspan x="261.04" y="0" style="letter-spacing:-0.010751063963818117em">t</tspan><tspan x="266.52" y="0">ern</tspan><tspan x="289.69" y="0" style="letter-spacing:-0.009248227065649994em">a</tspan><tspan x="297.63" y="0">ti</tspan><tspan x="307.04" y="0" style="letter-spacing:-0.009768439838092806em">v</tspan><tspan x="314.51" y="0">e </tspan><tspan x="13.81" y="20.27">Cibubur KM.4 J</tspan><tspan x="117.16" y="20.27" style="letter-spacing:-0.009248227065649994em">a</tspan><tspan x="125.1" y="20.27">tisampurna-Cibubu</tspan><tspan x="256.89" y="20.27" style="letter-spacing:-0.08600851171054494em">r</tspan><tspan x="261.33" y="20.27">, Be</tspan><tspan x="286.96" y="20.27" style="letter-spacing:-0.017109220071452488em">k</tspan><tspan x="294.35" y="20.27">asi</tspan></text><a href="/hubungi-kami/gallery-cibubur" target="_PARENT"><text transform="translate(599.9 383.77)" style="font-size:18.958499908447266px;fill:#fff;font-family:Calibri, Calibri">Lih
                <tspan x="22.28" y="0" style="letter-spacing:-0.009271896555574938em">a</tspan><tspan x="31.19" y="0" style="letter-spacing:-0.000051510536419860774em">t Sh</tspan><tspan x="60.5" y="0" style="letter-spacing:-0.003914800767909419em">o</tspan><tspan x="70.42" y="0" style="letter-spacing:-0.000051510536419860774em">w</tspan><tspan x="83.97" y="0" style="letter-spacing:-0.01607128736299656em">r</tspan><tspan x="90.28" y="0" style="letter-spacing:-0.000051510536419860774em">oom</tspan></text></a></g></g><g class="bekasi-gallery"><path d="M459.49,204c-8.45,0-18.41,5.21-15.17,18.43,2.07,8.46,15.17,33.38,15.17,33.38s12.69-24.92,14.76-33.38C477.48,209.24,467.93,204,459.49,204Zm-.21,24.18a9.21,9.21,0,1,1,9.21-9.21A9.21,9.21,0,0,1,459.28,228.21Z" transform="translate(0 -1)" style="fill:#960c0c" /><circle cx="459.28" cy="218" r="9.21" style="fill:#fff" /><g class="bekasi-gallery-list"><path d="M504.1,387.88l.44-130.73c0-4.4-2.92-8.44-7.58-10.43l-38.88-16.58c-9.6-4.1-10.2-15.49-1.07-20.28l41.29-21.63c4-2.11,6.49-5.83,6.5-9.84l.42-124.24c0-6.42,6.2-11.61,13.8-11.58l315,1c7.61,0,13.75,5.25,13.73,11.68L846.61,389c0,6.42-6.21,11.61-13.81,11.58l-315-1.05C510.23,399.54,504.08,394.31,504.1,387.88Z" transform="translate(0 -1)" style="stroke:#960c0c;stroke-miterlimit:10;stroke-width:3px" /><text transform="translate(603.9 287.97)" style="font-size:22.01926040649414px;fill:#f9f9f9;font-family:Calibri, Calibri">BEKASI GALLE
                <tspan x="123.45" y="0" style="letter-spacing:-0.014635624405665968em">R</tspan><tspan x="135.08" y="0">Y</tspan></text><g style="clip-path:url(#e)"><image width="1040" height="585" transform="translate(491.08 62.29) scale(0.35)" xlink:href="showroom/bekasi.webp" /></g><text transform="translate(541.88 316.79)" style="font-size:16.895130157470703px;fill:#fff;font-family:Calibri, Calibri">Jl.I
                <tspan x="17.79" y="0" style="letter-spacing:-0.100632270758104em">r</tspan><tspan x="21.98" y="0" style="letter-spacing:0.00005780141916031246em">.H</tspan><tspan x="36.77" y="0" style="letter-spacing:0.009306028484810306em">.</tspan><tspan x="41.19" y="0">Juanda No 91C-D </tspan><tspan x="162.37" y="0" style="letter-spacing:-0.0180918441971778em">K</tspan><tspan x="170.84" y="0">el. Be</tspan><tspan x="208.8" y="0" style="letter-spacing:-0.017109220071452488em">k</tspan><tspan x="216.2" y="0">asi J</tspan><tspan x="243.98" y="0" style="letter-spacing:-0.0185542555504603em">a</tspan><tspan x="251.76" y="0" style="letter-spacing:-0.015143971820001864em">y</tspan><tspan x="259.15" y="0" style="letter-spacing:0.00005780141916031246em">a, </tspan><tspan x="36.64" y="20.27" style="letter-spacing:-0.018034042778017487em">K</tspan><tspan x="45.11" y="20.27">ec. Be</tspan><tspan x="86.34" y="20.27" style="letter-spacing:-0.017109220071452488em">k</tspan><tspan x="93.74" y="20.27">asi Timur </tspan><tspan x="160.33" y="20.27" style="letter-spacing:-0.018034042778017487em">K</tspan><tspan x="168.8" y="20.27">o</tspan><tspan x="177.71" y="20.27" style="letter-spacing:-0.012196099442825929em">t</tspan><tspan x="183.16" y="20.27">a Be</tspan><tspan x="212.67" y="20.27" style="letter-spacing:-0.017109220071452488em">k</tspan><tspan x="220.06" y="20.27">asi</tspan></text><a href="/hubungi-kami/gallery-bekasi" target="_PARENT"><text transform="translate(612.04 374.12)" style="font-size:18.958499908447266px;fill:#fff;font-family:Calibri, Calibri">Lih
                <tspan x="22.28" y="0" style="letter-spacing:-0.009271896555574938em">a</tspan><tspan x="31.19" y="0" style="letter-spacing:-0.000051510536419860774em">t Sh</tspan><tspan x="60.5" y="0" style="letter-spacing:-0.003914800767909419em">o</tspan><tspan x="70.42" y="0" style="letter-spacing:-0.000051510536419860774em">w</tspan><tspan x="83.97" y="0" style="letter-spacing:-0.01607128736299656em">r</tspan><tspan x="90.28" y="0" style="letter-spacing:-0.000051510536419860774em">oom</tspan></text></a></g></g><g class="bandung-gallery-1"><path d="M501.44,274.58c-8.44,0-18.4,5.21-15.17,18.42,2.07,8.46,15.17,33.39,15.17,33.39s12.7-24.93,14.77-33.39C519.44,279.79,509.89,274.58,501.44,274.58Zm-.2,24.18a9.21,9.21,0,1,1,9.21-9.21A9.21,9.21,0,0,1,501.24,298.76Z" transform="translate(0 -1)" style="fill:#960c0c" /><circle cx="501.24" cy="288.55" r="9.21" style="fill:#fff" /><g class="bandung-gallery-1-list"><path d="M548.65,464.32,550.1,329.9c0-4.53-3.1-8.71-8.15-10.79l-42.07-17.37c-10.39-4.29-11-16-1-20.86l45-21.9c4.39-2.14,7.09-6,7.13-10.07l1.38-127.74c.07-6.61,6.82-11.89,15.07-11.8l341.85,3.68c8.26.09,14.89,5.52,14.82,12.12l-3.7,343.15c-.07,6.61-6.82,11.89-15.07,11.8l-341.85-3.68C555.21,476.35,548.58,470.93,548.65,464.32Z" transform="translate(0 -1)" style="stroke:#960c0c;stroke-miterlimit:10;stroke-width:3px" /><text transform="translate(636.93 366.91)" style="font-size:22.01926040649414px;fill:#f9f9f9;font-family:Calibri, Calibri"><tspan style="letter-spacing:-0.009757082937110646em">B</tspan><tspan x="11.76" y="0">ANDUNG GALLE</tspan><tspan x="155.37" y="0" style="letter-spacing:-0.014679974782652835em">R</tspan><tspan x="167" y="0">Y 1</tspan></text><g style="clip-path:url(#f)"><image width="1040" height="780" transform="translate(588.88 138.93) scale(0.28)" xlink:href="showroom/bandung-1.webp" /></g><text transform="translate(566.72 395.73)" style="font-size:16.895130157470703px;fill:#fff;font-family:Calibri, Calibri">Pla
                <tspan x="20.7" y="0" style="letter-spacing:-0.016589007299009677em">z</tspan><tspan x="27.09" y="0">a IBCC Block D2 No.5 Jl. Jende</tspan><tspan x="231.45" y="0" style="letter-spacing:-0.020577305221071235em">r</tspan><tspan x="236.99" y="0">al Ahmad </tspan><tspan x="305.72" y="0" style="letter-spacing:-0.0654312064894737em">Y</tspan><tspan x="312.85" y="0">ani </tspan><tspan x="107.57" y="20.27">No. 269, Bandung</tspan></text><a href="/hubungi-kami/gallery-bandung1" target="_PARENT"><text transform="translate(671 453.06)" style="font-size:18.958499908447266px;fill:#fff;font-family:Calibri, Calibri">Lih
                <tspan x="22.28" y="0" style="letter-spacing:-0.009271896555574938em">a</tspan><tspan x="31.19" y="0" style="letter-spacing:-0.000051510536419860774em">t Sh</tspan><tspan x="60.5" y="0" style="letter-spacing:-0.003914800767909419em">o</tspan><tspan x="70.42" y="0" style="letter-spacing:-0.000051510536419860774em">w</tspan><tspan x="83.97" y="0" style="letter-spacing:-0.01607128736299656em">r</tspan><tspan x="90.28" y="0" style="letter-spacing:-0.000051510536419860774em">oom</tspan></text></a></g></g><g class="bandung-gallery-2"><path d="M492.68,253.7c-8.45,0-18.4,5.2-15.17,18.42,2.07,8.46,15.17,33.39,15.17,33.39s12.69-24.93,14.76-33.39C510.68,258.9,501.13,253.7,492.68,253.7Zm-.2,24.18a9.21,9.21,0,1,1,9.21-9.21A9.21,9.21,0,0,1,492.48,277.88Z" transform="translate(0 -1)" style="fill:#960c0c" /><circle cx="492.48" cy="267.67" r="9.21" style="fill:#fff" /><g class="bandung-gallery-2-list"><path d="M542.58,434.71,544,306.2c0-4.34-3.21-8.33-8.4-10.33l-43.32-16.65c-10.71-4.11-11.3-15.32-1.06-19.94l46.29-20.9c4.52-2,7.29-5.67,7.34-9.62l1.34-122.13c.07-6.32,7-11.36,15.51-11.27l351.95,3.86c8.5.1,15.33,5.29,15.26,11.61l-3.6,328.08c-.07,6.32-7,11.36-15.51,11.27l-352-3.86C549.34,446.23,542.51,441,542.58,434.71Z" transform="translate(0 -1)" style="stroke:#960c0c;stroke-miterlimit:10;stroke-width:3px" /><text transform="translate(628.16 341.63)" style="font-size:22.01926040649414px;fill:#f9f9f9;font-family:Calibri, Calibri"><tspan style="letter-spacing:-0.009757082937110646em">B</tspan><tspan x="11.76" y="0">ANDUNG GALLE</tspan><tspan x="155.37" y="0" style="letter-spacing:-0.014679974782652835em">R</tspan><tspan x="167" y="0">Y 2</tspan></text><g style="clip-path:url(#g)"><image width="1280" height="960" transform="translate(579.81 104.44) scale(0.24)" xlink:href="showroom/bandung-2.webp" /></g><text transform="translate(561.28 370.46)" style="font-size:16.895130157470703px;fill:#fff;font-family:Calibri, Calibri">Pla
                <tspan x="20.7" y="0" style="letter-spacing:-0.016589007299009677em">z</tspan><tspan x="27.09" y="0">a IBCC Block B3 No.18 Jl. Jende</tspan><tspan x="238.81" y="0" style="letter-spacing:-0.020519503801910925em">r</tspan><tspan x="244.35" y="0">al Ahmad </tspan><tspan x="313.08" y="0" style="letter-spacing:-0.0654312064894737em">Y</tspan><tspan x="320.21" y="0">ani </tspan><tspan x="115.23" y="20.27">No. 296, Bandun</tspan></text><a href="/hubungi-kami/gallery-bandung2" target="_PARENT"><text transform="translate(667.24 427.78)" style="font-size:18.958499908447266px;fill:#fff;font-family:Calibri, Calibri">Lih
                <tspan x="22.28" y="0" style="letter-spacing:-0.009271896555574938em">a</tspan><tspan x="31.19" y="0" style="letter-spacing:-0.000051510536419860774em">t Sh</tspan><tspan x="60.5" y="0" style="letter-spacing:-0.003914800767909419em">o</tspan><tspan x="70.42" y="0" style="letter-spacing:-0.000051510536419860774em">w</tspan><tspan x="83.97" y="0" style="letter-spacing:-0.01607128736299656em">r</tspan><tspan x="90.28" y="0" style="letter-spacing:-0.000051510536419860774em">oom</tspan></text></a></g></g><g class="head-office"><path d="M580.79,244.53c-8.45,0-18.4,5.2-15.17,18.42,2.07,8.46,15.17,33.39,15.17,33.39s12.7-24.93,14.77-33.39C598.79,249.73,589.24,244.53,580.79,244.53Zm-.2,24.18a9.21,9.21,0,1,1,9.21-9.21A9.21,9.21,0,0,1,580.59,268.71Z" transform="translate(0 -1)" style="fill:#960c0c" /><circle cx="580.59" cy="258.5" r="9.21" style="fill:#fff" /><g class="head-office-list"><path d="M634.33,438.14l-.41-138.83c0-4.68-3.4-8.95-8.75-11l-44.63-17.34c-11-4.28-11.8-16.38-1.37-21.52l47.12-23.27c4.6-2.27,7.39-6.24,7.37-10.5l-.39-131.93c0-6.83,7-12.38,15.72-12.41l360.66-1.08c8.7,0,15.78,5.48,15.8,12.31L1026.52,437c0,6.82-7,12.38-15.73,12.4l-360.65,1.09C641.43,450.47,634.36,445,634.33,438.14Z" transform="translate(0 -1)" style="stroke:#960c0c;stroke-miterlimit:10;stroke-width:3px" /><text transform="translate(706.46 333.16)" style="font-size:22.01926040649414px;fill:#f9f9f9;font-family:Calibri, Calibri">H
                <tspan x="13.72" y="0" style="letter-spacing:-0.010732791230821711em">E</tspan><tspan x="24.23" y="0">AD OFFICE &amp; </tspan><tspan x="143.33" y="0" style="letter-spacing:-0.05614757726537308em">F</tspan><tspan x="152.21" y="0" style="letter-spacing:-0.007317812202832984em">A</tspan><tspan x="164.79" y="0" style="letter-spacing:0.00492289184554219em">C</tspan><tspan x="176.64" y="0" style="letter-spacing:-0.028339890894607738em">T</tspan><tspan x="186.74" y="0">O</tspan><tspan x="201.32" y="0" style="letter-spacing:-0.014635624405665968em">R</tspan><tspan x="212.96" y="0" style="letter-spacing:-0.00004435037698686657em">Y</tspan></text><g style="clip-path:url(#h)"><image width="1024" height="687" transform="translate(665.02 99.58) scale(0.32)" xlink:href="showroom/headoffice.webp" /></g><text transform="translate(649.5 361.98)" style="font-size:16.895130157470703px;fill:#fff;font-family:Calibri, Calibri">Jl. R
                <tspan x="26.52" y="0" style="letter-spacing:-0.0185542555504603em">a</tspan><tspan x="34.3" y="0" style="letter-spacing:-0.015143971820001864em">y</tspan><tspan x="41.69" y="0">a </tspan><tspan x="53.61" y="0" style="letter-spacing:-0.016589007299009677em">K</tspan><tspan x="62.1" y="0">anci Ci</tspan><tspan x="106.8" y="0" style="letter-spacing:-0.01317872356855124em">r</tspan><tspan x="112.47" y="0">ebon – </tspan><tspan x="163.59" y="0" style="letter-spacing:-0.08889858266856057em">T</tspan><tspan x="170.32" y="0">e</tspan><tspan x="178.73" y="0" style="letter-spacing:-0.018496454131299987em">g</tspan><tspan x="186.37" y="0">al KM 13,5 Ds. R</tspan><tspan x="297.18" y="0" style="letter-spacing:-0.006878368880077182em">a</tspan><tspan x="305.16" y="0" style="letter-spacing:-0.011213475317100617em">w</tspan><tspan x="317.05" y="0">aurip</tspan><tspan x="57.76" y="20.27" style="letter-spacing:-0.018034042778017487em">K</tspan><tspan x="66.24" y="20.27">ec. </tspan><tspan x="89.87" y="20.27" style="letter-spacing:-0.021502127927636235em">P</tspan><tspan x="98.24" y="20.27">an</tspan><tspan x="115.2" y="20.27" style="letter-spacing:-0.008265602939924682em">g</tspan><tspan x="123.02" y="20.27">enan </tspan><tspan x="161.09" y="20.27" style="letter-spacing:-0.016589007299009677em">K</tspan><tspan x="169.59" y="20.27">ab. Ci</tspan><tspan x="207.53" y="20.27" style="letter-spacing:-0.013236524987711554em">r</tspan><tspan x="213.19" y="20.27">ebon 45182</tspan></text><a href="/hubungi-kami" target="_PARENT"><text transform="translate(754.35 419.31)" style="font-size:18.958499908447266px;fill:#fff;font-family:Calibri, Calibri">Lih
                <tspan x="22.28" y="0" style="letter-spacing:-0.009271896555574938em">a</tspan><tspan x="31.19" y="0" style="letter-spacing:-0.000051510536419860774em">t Sh</tspan><tspan x="60.5" y="0" style="letter-spacing:-0.003914800767909419em">o</tspan><tspan x="70.42" y="0" style="letter-spacing:-0.000051510536419860774em">w</tspan><tspan x="83.97" y="0" style="letter-spacing:-0.01607128736299656em">r</tspan><tspan x="90.28" y="0" style="letter-spacing:-0.000051510536419860774em">oom</tspan></text></a></g></g><g class="semarang-gallery"><path d="M761.74,266c-8.45,0-18.4,5.21-15.17,18.42,2.07,8.47,15.17,33.39,15.17,33.39s12.69-24.92,14.76-33.39C779.74,271.21,770.19,266,761.74,266Zm-.2,24.18a9.21,9.21,0,1,1,9.21-9.21A9.21,9.21,0,0,1,761.54,290.18Z" transform="translate(0 -1)" style="fill:#960c0c" /><circle cx="761.54" cy="279.97" r="9.21" style="fill:#fff" /><g class="semarang-gallery-list"><path d="M717.78,111.3l-1,132c0,4.45,2.88,8.54,7.53,10.57l38.81,16.91c9.58,4.18,10.13,15.7,1,20.49L722.68,313a11.46,11.46,0,0,0-6.54,9.91l-1,125.48c0,6.49-6.26,11.7-13.86,11.64l-315-2.45c-7.6-.05-13.73-5.36-13.68-11.85l2.62-337.07c.06-6.49,6.26-11.71,13.86-11.65l315,2.45C711.71,99.5,717.83,104.81,717.78,111.3Z" transform="translate(0 -1)" style="stroke:#960c0c;stroke-miterlimit:10;stroke-width:3px" /><text transform="translate(443.22 348.63)" style="font-size:22.01926040649414px;fill:#f9f9f9;font-family:Calibri, Calibri">SEMARANG GALLE
                <tspan x="166.11" y="0" style="letter-spacing:-0.014679974782652835em">R</tspan><tspan x="177.75" y="0">Y</tspan></text><g style="clip-path:url(#i)"><image width="1032" height="581" transform="translate(378.75 120.96) scale(0.34)" xlink:href="showroom/semarang.webp" /></g><text transform="translate(429.46 377.46)" style="font-size:16.895130157470703px;fill:#fff;font-family:Calibri, Calibri">Jln
                <tspan x="21.96" y="0" style="letter-spacing:-0.01999929102946811em">P</tspan><tspan x="30.35" y="0">e</tspan><tspan x="38.76" y="0" style="letter-spacing:-0.03375602878962248em">k</tspan><tspan x="45.87" y="0" style="letter-spacing:0.00005780141916031246em">ojan No 49 Pu</tspan><tspan x="141.79" y="0" style="letter-spacing:0.005317730562748747em">r</tspan><tspan x="147.77" y="0" style="letter-spacing:-0.009248227065649994em">w</tspan><tspan x="159.7" y="0">odin</tspan><tspan x="190.24" y="0" style="letter-spacing:-0.009306028484810306em">a</tspan><tspan x="198.17" y="0" style="letter-spacing:-0.012196099442825929em">t</tspan><tspan x="203.62" y="0">an, </tspan><tspan x="53.98" y="20.27">Sema</tspan><tspan x="91.74" y="20.27" style="letter-spacing:-0.020519503801910925em">r</tspan><tspan x="97.28" y="20.27">ang </tspan><tspan x="126.02" y="20.27" style="letter-spacing:-0.08884078124940026em">T</tspan><tspan x="132.76" y="20.27">en</tspan><tspan x="150.04" y="20.27" style="letter-spacing:-0.018496454131299987em">g</tspan><tspan x="157.68" y="20.27">ah</tspan></text><a href="/hubungi-kami/gallery-semarang" target="_PARENT"><text transform="translate(477.29 432.78)" style="font-size:18.958499908447266px;fill:#fff;font-family:Calibri, Calibri">Lih
                <tspan x="22.28" y="0" style="letter-spacing:-0.009271896555574938em">a</tspan><tspan x="31.19" y="0" style="letter-spacing:-0.000051510536419860774em">t Sh</tspan><tspan x="60.5" y="0" style="letter-spacing:-0.003914800767909419em">o</tspan><tspan x="70.42" y="0" style="letter-spacing:-0.000051510536419860774em">w</tspan><tspan x="83.97" y="0" style="letter-spacing:-0.01607128736299656em">r</tspan><tspan x="90.28" y="0" style="letter-spacing:-0.000051510536419860774em">oom</tspan></text></a></g></g><g class="yogyakarta-gallery"><path d="M760.85,347.56c-8.54,0-18.61,5.27-15.34,18.63,2.1,8.56,15.34,33.77,15.34,33.77s12.84-25.21,14.93-33.77C779.05,352.83,769.4,347.56,760.85,347.56Zm-.2,24.45A9.31,9.31,0,1,1,770,362.7,9.31,9.31,0,0,1,760.65,372Z" transform="translate(0 -1)" style="fill:#960c0c" /><circle cx="760.65" cy="361.7" r="9.31" style="fill:#fff" /><g class="yogyakarta-gallery-list"><path d="M714.34,135.41,712.7,272.93c0,45.91.34,45.6,5,47.73l44,30c9.67,4.39,10.31,17.76,1,22.71l-49,32.66c-4.1,2.19-2.92,20.32-3,24.54l-.72,55.87c-.08,6.76-6.38,12.16-14.07,12.07l-318.49-3.8c-7.69-.09-13.86-5.64-13.78-12.4L368,131.29c.08-6.76,6.38-12.17,14.06-12.08l318.5,3.8C708.25,123.1,714.42,128.65,714.34,135.41Z" transform="translate(0 -1)" style="stroke:#960c0c;stroke-miterlimit:10;stroke-width:3px" /><text transform="translate(435.19 381.7)" style="font-size:22.267370223999023px;fill:#f9f9f9;font-family:Calibri, Calibri"><tspan style="letter-spacing:-0.032190459303876866em">Y</tspan><tspan x="10.13" y="0">O</tspan><tspan x="24.88" y="0" style="letter-spacing:-0.014647974669611543em">G</tspan><tspan x="38.6" y="0" style="letter-spacing:-0.0742047100029423em">Y</tspan><tspan x="47.8" y="0">AKA</tspan><tspan x="85.13" y="0" style="letter-spacing:-0.009779935183602916em">R</tspan><tspan x="97.01" y="0" style="letter-spacing:-0.07810791283406635em">T</tspan><tspan x="106.12" y="0">A GALLE</tspan><tspan x="180.56" y="0" style="letter-spacing:-0.014647974669611543em">R</tspan><tspan x="192.33" y="0">Y</tspan></text><text transform="translate(404.36 408.52)" style="font-size:17.085500717163086px;fill:#fff;font-family:Calibri, Calibri">Jl.Dipone
                <tspan x="63.58" y="0" style="letter-spacing:-0.006801728519624909em">g</tspan><tspan x="71.5" y="0">o</tspan><tspan x="80.51" y="0" style="letter-spacing:-0.0161183818700355em">r</tspan><tspan x="86.2" y="0">o No. 103, </tspan><tspan x="161.39" y="0" style="letter-spacing:-0.009773912410553441em">R</tspan><tspan x="170.5" y="0" style="letter-spacing:-0.05224184762132073em">T</tspan><tspan x="177.93" y="0">/</tspan><tspan x="184.53" y="0" style="letter-spacing:-0.008802236907749882em">R</tspan><tspan x="193.66" y="0" style="letter-spacing:-0.00005715738251785638em">W 022/006 </tspan><tspan x="26.22" y="20.5" style="letter-spacing:-0.018061732875642614em">K</tspan><tspan x="34.78" y="20.5">el. Bumijo </tspan><tspan x="108.18" y="20.5" style="letter-spacing:-0.018004575493124758em">K</tspan><tspan x="116.75" y="20.5">ec. J</tspan><tspan x="146.1" y="20.5" style="letter-spacing:-0.005372793956678499em">e</tspan><tspan x="154.51" y="20.5">tis, Jogja</tspan><tspan x="213.61" y="20.5" style="letter-spacing:-0.017090057372839057em">k</tspan><tspan x="221.08" y="20.5" style="letter-spacing:0.00005715738251785638em">ar</tspan><tspan x="235.22" y="20.5" style="letter-spacing:-0.012174522476303408em">t</tspan><tspan x="240.74" y="20.5">a</tspan></text><a href="/hubungi-kami/gallery-jogjakarta" target="_PARENT"><text transform="translate(469.65 466.49)" style="font-size:19.172119140625px;fill:#fff;font-family:Calibri, Calibri">Lih
                <tspan x="22.53" y="0" style="letter-spacing:-0.009321397190846693em">a</tspan><tspan x="31.54" y="0">t Sh</tspan><tspan x="61.18" y="0" style="letter-spacing:-0.003922117943689593em">o</tspan><tspan x="71.21" y="0">w</tspan><tspan x="84.92" y="0" style="letter-spacing:-0.016095964548128717em">r</tspan><tspan x="91.29" y="0">oom</tspan></text></a><g style="clip-path:url(#j)"><image width="3264" height="2488" transform="translate(414.24 155.81) scale(0.08)" xlink:href="showroom/jogja.webp" /></g></g></g><g class="surabaya-gallery-1"><path d="M964.65,291.54c-8.45,0-18.41,5.2-15.17,18.42,2.07,8.46,15.17,33.39,15.17,33.39s12.69-24.93,14.76-33.39C982.64,296.74,973.09,291.54,964.65,291.54Zm-.21,24.18a9.21,9.21,0,1,1,9.21-9.21A9.21,9.21,0,0,1,964.44,315.72Z" transform="translate(0 -1)" style="fill:#960c0c" /><circle cx="964.44" cy="305.51" r="9.21" style="fill:#fff" /><g class="surabaya-gallery-1-list"><path d="M930.23,78.34l-.34,189.45c0,4.41,1.31,13.73,5.75,15.75l33.47,14.9c9.16,4.16,7.83,18-.93,22.75l-34.4,19.22c-3.87,2.1-6.64,8.23-6.68,12.25l-.1,60c-.06,6.44-6,11.6-13.28,11.53l-301.09-2.91c-7.27-.08-13.11-5.35-13-11.79l3.24-334.27c.06-6.44,6-11.6,13.27-11.53l301.1,2.91C924.45,66.63,930.3,71.91,930.23,78.34Z" transform="translate(0 -1)" style="stroke:#960c0c;stroke-miterlimit:10;stroke-width:3px" /><text transform="translate(665.13 316.78)" style="font-size:22.01926040649414px;fill:#f9f9f9;font-family:Calibri, Calibri">SURA
                <tspan x="48.94" y="0" style="letter-spacing:-0.009801433314097512em">B</tspan><tspan x="60.7" y="0" style="letter-spacing:-0.07322247240531671em">A</tspan><tspan x="71.83" y="0" style="letter-spacing:-0.07424253107601464em">Y</tspan><tspan x="80.93" y="0" style="letter-spacing:0.00004435037698686657em">A GALLE</tspan><tspan x="154.54" y="0" style="letter-spacing:-0.014635624405665968em">R</tspan><tspan x="166.18" y="0" style="letter-spacing:-0.00004435037698686657em">Y 1</tspan></text><text transform="translate(665.43 343.3)" style="font-size:16.895130157470703px;fill:#fff;font-family:Calibri, Calibri">Jl. R
                <tspan x="26.52" y="0" style="letter-spacing:-0.0185542555504603em">a</tspan><tspan x="34.3" y="0" style="letter-spacing:-0.015143971820001864em">y</tspan><tspan x="41.69" y="0">a Jemu</tspan><tspan x="89.77" y="0" style="letter-spacing:-0.017109220071452488em">r</tspan><tspan x="95.37" y="0" style="letter-spacing:0.00005780141916031246em">sari No. 2F &amp; 2G,</tspan><tspan x="74.04" y="20.27">Su</tspan><tspan x="90.68" y="20.27" style="letter-spacing:-0.020577305221071235em">r</tspan><tspan x="96.22" y="20.27" style="letter-spacing:0.00005780141916031246em">ab</tspan><tspan x="113.19" y="20.27" style="letter-spacing:-0.0185542555504603em">a</tspan><tspan x="120.97" y="20.27" style="letter-spacing:-0.015143971820001864em">y</tspan><tspan x="128.36" y="20.27">a</tspan></text><a href="/hubungi-kami/gallery-surabaya1" target="_PARENT"><text transform="translate(699.2 400.62)" style="font-size:18.958499908447266px;fill:#fff;font-family:Calibri, Calibri">Lih
                <tspan x="22.28" y="0" style="letter-spacing:-0.009271896555574938em">a</tspan><tspan x="31.19" y="0" style="letter-spacing:-0.000051510536419860774em">t Sh</tspan><tspan x="60.5" y="0" style="letter-spacing:-0.003914800767909419em">o</tspan><tspan x="70.42" y="0" style="letter-spacing:-0.000051510536419860774em">w</tspan><tspan x="83.97" y="0" style="letter-spacing:-0.01607128736299656em">r</tspan><tspan x="90.28" y="0" style="letter-spacing:-0.000051510536419860774em">oom</tspan></text></a><g style="clip-path:url(#k)"><image width="3264" height="2448" transform="translate(632.89 91.1) scale(0.08)" xlink:href="showroom/surabaya.webp" /></g></g></g><g class="surabaya-gallery-2"><path d="M982.79,297.57c-8.45,0-18.4,5.2-15.17,18.42,2.07,8.46,15.17,33.38,15.17,33.38s12.69-24.92,14.76-33.38C1000.79,302.77,991.24,297.57,982.79,297.57Zm-.2,24.17a9.21,9.21,0,1,1,9.21-9.21A9.21,9.21,0,0,1,982.59,321.74Z" transform="translate(0 -1)" style="fill:#960c0c" /><circle cx="982.59" cy="311.53" r="9.21" style="fill:#fff" /><g class="surabaya-gallery-2-list"><path d="M943.46,83,943,265.33c0,4.33,6.88,10.93,11.24,12.88l30.92,22.34c9,4,8.57,21.92,0,26.62l-38.4,22.31C943,351.56,943,361,943,364.94l-.86,46.16c0,6.32-5.82,11.42-12.94,11.39l-295-1.2c-7.12,0-12.88-5.17-12.85-11.49l1.32-328.09c0-6.31,5.82-11.41,13-11.38l295,1.19C937.73,71.55,943.49,76.69,943.46,83Z" transform="translate(0 -1)" style="stroke:#960c0c;stroke-miterlimit:10;stroke-width:3px" /><text transform="translate(685.27 319.8)" style="font-size:22.01926040649414px;fill:#f9f9f9;font-family:Calibri, Calibri">SURA
                <tspan x="48.94" y="0" style="letter-spacing:-0.009801433314097512em">B</tspan><tspan x="60.7" y="0" style="letter-spacing:-0.07322247240531671em">A</tspan><tspan x="71.83" y="0" style="letter-spacing:-0.07424253107601464em">Y</tspan><tspan x="80.93" y="0" style="letter-spacing:0.00004435037698686657em">A GALLE</tspan><tspan x="154.54" y="0" style="letter-spacing:-0.014635624405665968em">R</tspan><tspan x="166.18" y="0" style="letter-spacing:-0.00004435037698686657em">Y 2</tspan></text><text transform="translate(655.74 346.32)" style="font-size:16.895130157470703px;fill:#fff;font-family:Calibri, Calibri">Jl. Bali
                <tspan x="42.39" y="0" style="letter-spacing:-0.008728014293207182em">w</tspan><tspan x="54.32" y="0">erti No 28 Alon-Alon Co</tspan><tspan x="216.21" y="0" style="letter-spacing:-0.009306028484810306em">n</tspan><tspan x="224.93" y="0">t</tspan><tspan x="230.59" y="0" style="letter-spacing:-0.016126595945727178em">r</tspan><tspan x="236.21" y="0">on</tspan><tspan x="254" y="0" style="letter-spacing:0.011213475317100617em">g</tspan><tspan x="262.14" y="0">, </tspan><tspan x="72.85" y="20.27">Bubu</tspan><tspan x="108.67" y="20.27" style="letter-spacing:-0.012196099442825929em">t</tspan><tspan x="114.12" y="20.27">an Su</tspan><tspan x="151.55" y="20.27" style="letter-spacing:-0.020577305221071235em">r</tspan><tspan x="157.09" y="20.27" style="letter-spacing:0.00005780141916031246em">ab</tspan><tspan x="174.06" y="20.27" style="letter-spacing:-0.0185542555504603em">a</tspan><tspan x="181.84" y="20.27" style="letter-spacing:-0.015143971820001864em">y</tspan><tspan x="189.23" y="20.27">a</tspan></text><a href="/hubungi-kami/gallery-surabaya2" target="_PARENT"><text transform="translate(719.34 403.65)" style="font-size:18.958499908447266px;fill:#fff;font-family:Calibri, Calibri">Lih
                <tspan x="22.28" y="0" style="letter-spacing:-0.009271896555574938em">a</tspan><tspan x="31.19" y="0" style="letter-spacing:-0.000051510536419860774em">t Sh</tspan><tspan x="60.5" y="0" style="letter-spacing:-0.003914800767909419em">o</tspan><tspan x="70.42" y="0" style="letter-spacing:-0.000051510536419860774em">w</tspan><tspan x="83.97" y="0" style="letter-spacing:-0.01607128736299656em">r</tspan><tspan x="90.28" y="0" style="letter-spacing:-0.000051510536419860774em">oom</tspan></text></a><g style="clip-path:url(#l)"><image width="1040" height="780" transform="translate(655.34 96.43) scale(0.25)"  xlink:href="showroom/surabaya2.webp" /></g></g></g><g class="bali-gallery"><path d="M1194.28,430.19c-8.45,0-18.41,5.21-15.17,18.42,2.07,8.46,15.17,33.39,15.17,33.39S1207,457.07,1209,448.61C1212.27,435.4,1202.72,430.19,1194.28,430.19Zm-.21,24.18a9.21,9.21,0,1,1,9.21-9.21A9.21,9.21,0,0,1,1194.07,454.37Z" transform="translate(0 -1)" style="fill:#960c0c" /><circle cx="1194.07" cy="444.16" r="9.21" style="fill:#fff" /><g class="bali-gallery-list"><path d="M1162.56,173.07l-.06,237.43c0,4.21,1.83,9.09,6,11l28,13c8.6,3.94,8.22,17.46,0,22l-28,13c-3.63,2-8,6.17-8,10l-.28,12.29c0,6.14-5.62,11.07-12.44,11L865,500.73c-6.83-.05-12.33-5.07-12.28-11.21l2.35-318.71c0-6.14,5.61-11.07,12.44-11l282.76,2.08C1157.11,161.92,1162.61,166.94,1162.56,173.07Z" transform="translate(0 -1)" style="stroke:#960c0c;stroke-miterlimit:10;stroke-width:3px" /><text transform="translate(945.5 401.12)" style="font-size:22.01926040649414px;fill:#f9f9f9;font-family:Calibri, Calibri"><tspan style="letter-spacing:-0.009757082937110646em">B</tspan><tspan x="11.76" y="0">ALI GALLE</tspan><tspan x="100.18" y="0" style="letter-spacing:-0.014679974782652835em">R</tspan><tspan x="111.82" y="0">Y</tspan></text><text transform="translate(923.52 427.64)" style="font-size:16.895130157470703px;fill:#fff;font-family:Calibri, Calibri">Jl. Mahend
                <tspan x="74.92" y="0" style="letter-spacing:-0.020577305221071235em">r</tspan><tspan x="80.47" y="0">ad</tspan><tspan x="97.44" y="0" style="letter-spacing:-0.009248227065649994em">a</tspan><tspan x="105.37" y="0" style="letter-spacing:-0.012253900861986243em">t</tspan><tspan x="110.82" y="0" style="letter-spacing:0.00005780141916031246em">a No. 59 </tspan><tspan x="37.36" y="20.27">Denpasa</tspan><tspan x="96.71" y="20.27" style="letter-spacing:-0.08595071029138462em">r</tspan><tspan x="101.15" y="20.27" style="letter-spacing:-0.00005780141916031246em">, Bali</tspan></text><a href="/hubungi-kami/gallery-bali" target="_PARENT"><text transform="translate(945.83 484.97)" style="font-size:18.958499908447266px;fill:#fff;font-family:Calibri, Calibri">Lih
                <tspan x="22.28" y="0" style="letter-spacing:-0.009271896555574938em">a</tspan><tspan x="31.19" y="0" style="letter-spacing:-0.000051510536419860774em">t Sh</tspan><tspan x="60.5" y="0" style="letter-spacing:-0.003914800767909419em">o</tspan><tspan x="70.42" y="0" style="letter-spacing:-0.000051510536419860774em">w</tspan><tspan x="83.97" y="0" style="letter-spacing:-0.01607128736299656em">r</tspan><tspan x="90.28" y="0" style="letter-spacing:-0.000051510536419860774em">oom</tspan></text></a><g style="clip-path:url(#m)"><image width="1280" height="768" transform="translate(849.59 180.05) scale(0.25)" xlink:href="showroom/bali.webp" /></g></g></g></svg>