<svg xmlns="http://www.w3.org/2000/svg" xmlns:xlink="http://www.w3.org/1999/xlink" viewBox="0 0 1458.72 1142.64"><defs><radialGradient id="a" cx="600" cy="400" r="851.94" gradientTransform="translate(1200 664.4) rotate(180) scale(1 0.66)" gradientUnits="userSpaceOnUse"><stop offset="0" stop-color="#303138"/><stop offset="0.09" stop-color="#2d2e35"/><stop offset="0.58" stop-color="#1f2028"/><stop offset="1" stop-color="#1a1b23"/></radialGradient><clipPath id="b" transform="translate(206.4 67.2)"><rect width="1200" height="800" style="fill:none"/></clipPath><linearGradient id="c" x1="251.47" y1="498.24" x2="132.23" y2="823.71" gradientTransform="matrix(0.95, 0.32, -0.39, 1.14, 269.12, -245.19)" gradientUnits="userSpaceOnUse"><stop offset="0" stop-color="#272426"/><stop offset="0.12" stop-color="#666465" stop-opacity="0.71"/><stop offset="0.35" stop-color="#bcbbbc" stop-opacity="0.31"/><stop offset="0.62" stop-color="#efefef" stop-opacity="0.07"/><stop offset="1" stop-color="#fff" stop-opacity="0"/></linearGradient></defs><title>home</title><g style="isolation:isolate"><rect width="1200" height="800" transform="translate(1406.4 867.2) rotate(180)" style="fill:url(#a)"/><g style="clip-path:url(#b)"><path d="M327.51,615.88c-14.22-16.09-34.47-24.49-55.07-28.34-58.09-10.85-117.53,10.92-175.84,19.85-61.38,9.39-123.87-1-175.49-34.55a156,156,0,0,1-15.42-11.37l-16.36,48.09L347.24,765.27a135.93,135.93,0,0,1-8.41-53.72C340.44,676,352.23,643.82,327.51,615.88Z" transform="translate(206.4 67.2)" style="opacity:0.15;fill:url(#c)"/><path d="M852.17,60.19c22.11,15.5,52.69,18.9,81.38,18.56,16.77-.19,34-1.39,49.84,3.37,22.89,6.88,38.18,24.74,57,37.74,40.36,27.87,101.21,32.21,146.5,10.44a83.21,83.21,0,0,0,12.28-7.26V0H829.62c-.19.48-.37,1-.53,1.44C822,22.44,832.3,46.27,852.17,60.19Z" transform="translate(206.4 67.2)" style="fill:#b70606"/><path d="M-95.86,606s359.15,16,367.13,10,67.56,95.58,67.56,95.58l22.22,124.89s-131.68,81.81-151.63,78.82-312.26-76.82-330.22-80.81S-95.86,606-95.86,606Z" transform="translate(206.4 67.2)" style="fill:#b70606"/><image width="4292" height="2749" transform="translate(0 482.88) scale(0.24)" xlink:href="home1.png" style="opacity:0.75;mix-blend-mode:multiply"/><path d="M717.42,930.14c-64.59-78.38-191.73-44.29-239.34-145.89-15.69-33.48-22.54-71.49-32.86-107.73-13.09-45.95-32.4-90.21-62.66-124.08s-72.49-56.54-117.32-54.63c-37.6,1.6-73.77,19.77-109.59,35.18C90.13,561.18,24.21,562.13-34.9,525.13c-22.73-14.23-42.49-33.57-58.25-56.37l-60,176.51a156,156,0,0,0,15.42,11.37c51.62,33.56,114.11,43.94,175.49,34.55,58.31-8.93,117.75-30.7,175.84-19.85,20.6,3.85,40.85,12.25,55.07,28.34,24.72,28,12.93,60.14,11.32,95.67a135.93,135.93,0,0,0,8.41,53.72l468.14,159.19C745.44,980.76,735.57,952.16,717.42,930.14Z" transform="translate(206.4 67.2)" style="fill:#db0000"/><image width="2716" height="2111" transform="translate(806.88) scale(0.24)" xlink:href="home2.png" style="opacity:0.75;mix-blend-mode:multiply"/><path d="M676.07,90.31c13.85,24.91,42.61,39.21,71,48.27,36,11.5,73.86,17,110.41,26.87s72.92,24.87,98.41,51.34c31,32.24,42.21,77.37,70.05,112.08,42.84,53.41,112.31,67.85,173.26,50.55V123a83.21,83.21,0,0,1-12.28,7.26c-45.29,21.77-106.14,17.43-146.5-10.44-18.83-13-34.12-30.86-57-37.74-15.8-4.76-33.07-3.56-49.84-3.37-28.69.34-59.27-3.06-81.38-18.56C832.3,46.27,822,22.44,829.09,1.44c.16-.48.34-1,.53-1.44H689.07a105.2,105.2,0,0,0-13.56,21.69C665.42,43.37,664.41,69.33,676.07,90.31Z" transform="translate(206.4 67.2)" style="fill:#db0000"/></g><rect width="1200" height="800" transform="translate(1406.4 867.2) rotate(180)" style="fill:none"/><circle cx="285.13" cy="548.17" r="36.59" style="fill:#db0000"/></g></svg>