<?xml version="1.0" encoding="UTF-8"?>
<!DOCTYPE svg PUBLIC "-//W3C//DTD SVG 1.1//EN" "http://www.w3.org/Graphics/SVG/1.1/DTD/svg11.dtd">
<!-- Creator: CorelDRAW 2020 (64-Bit) -->
<svg xmlns="http://www.w3.org/2000/svg" xml:space="preserve" width="297mm" height="210mm" version="1.1" style="shape-rendering:geometricPrecision; text-rendering:geometricPrecision; image-rendering:optimizeQuality; fill-rule:evenodd; clip-rule:evenodd"
viewBox="0 0 29700 21000"
 xmlns:xlink="http://www.w3.org/1999/xlink"
 xmlns:xodm="http://www.corel.com/coreldraw/odm/2003">
 <defs>
  <style type="text/css">
   <![CDATA[
    .fil2 {fill:black;fill-rule:nonzero;fill-opacity:0.039216}
    .fil0 {fill:black;fill-rule:nonzero;fill-opacity:0.094118}
    .fil1 {fill:black;fill-rule:nonzero;fill-opacity:0.200000}
   ]]>
  </style>
 </defs>
 <g id="Layer_x0020_1">
  <metadata id="CorelCorpID_0Corel-Layer"/>
  <g id="_1741771716928">
   <g id="Group_192" data-name="Group 192">
    <g id="Group_187" data-name="Group 187">
     <path id="Path_49" class="fil0" d="M5325.82 10084.72c-70.66,-131.81 -208.29,-214.26 -357.92,-214.26 -67.04,0 -133.07,16.61 -192.12,48.29 -197.79,106.2 -409.61,426 -303.12,623.86 106.5,197.85 421.61,42.13 645.72,44.77 313.07,3.48 313.66,-305.48 207.44,-502.66z" data-name="Path 49"/>
    </g>
    <path id="Ellipse_39" class="fil1" d="M7659.64 6405.07c0,-149.47 -121.16,-270.63 -270.63,-270.63 -149.47,0 -270.63,121.16 -270.63,270.63 0,149.46 121.16,270.63 270.63,270.63 149.47,0 270.63,-121.17 270.63,-270.63z" data-name="Ellipse 39"/>
    <path id="Ellipse_40" class="fil1" d="M8567.23 6505.73c0,-62.05 -50.3,-112.35 -112.35,-112.35 -62.05,0 -112.35,50.3 -112.35,112.35 0,62.04 50.3,112.35 112.35,112.35 62.05,0 112.35,-50.31 112.35,-112.35z" data-name="Ellipse 40"/>
    <g id="Group_188" data-name="Group 188">
     <path id="Path_49-2" class="fil0" d="M13988.11 14208.99c117.55,-92.51 174.77,-242.42 148.74,-389.81 -11.67,-66.02 -39.58,-128.21 -81.05,-180.86 -139.02,-176.32 -490.86,-329.33 -667.15,-190 -176.3,139.32 31.85,422.61 68.25,643.82 51.02,308.97 355.46,255.84 531.21,116.85z" data-name="Path 49"/>
    </g>
    <path id="Ellipse_41" class="fil1" d="M12543.21 14098.39c0,-149.47 -121.16,-270.63 -270.63,-270.63 -149.46,0 -270.63,121.16 -270.63,270.63 0,149.47 121.17,270.63 270.63,270.63 149.47,0 270.63,-121.16 270.63,-270.63z" data-name="Ellipse 41"/>
    <path id="Ellipse_42" class="fil1" d="M14822.23 9449.27c0,-62.05 -50.31,-112.35 -112.35,-112.35 -62.05,0 -112.36,50.3 -112.36,112.35 0,62.05 50.31,112.35 112.36,112.35 62.04,0 112.35,-50.3 112.35,-112.35z" data-name="Ellipse 42"/>
    <path id="Ellipse_43" class="fil1" d="M16394.33 8378.87c0,-62.04 -50.31,-112.35 -112.36,-112.35 -62.04,0 -112.35,50.31 -112.35,112.35 0,62.05 50.31,112.35 112.35,112.35 62.05,0 112.36,-50.3 112.36,-112.35z" data-name="Ellipse 43"/>
    <g id="Group_189" data-name="Group 189">
     <path id="Path_49-3" class="fil0" d="M18007.94 10125.08c58.88,137.42 188.79,231.47 337.82,244.48 66.77,5.84 134.03,-5.01 195.6,-31.42 206.22,-88.56 445.02,-388.63 356.15,-594.9 -88.87,-206.28 -416.26,-78.65 -639.24,-100.77 -311.51,-30.73 -339.01,276.94 -250.33,482.61z" data-name="Path 49"/>
    </g>
    <path id="Ellipse_44" class="fil1" d="M2541.9 13312.33c0,-306.49 -248.45,-554.94 -554.94,-554.94 -306.49,0 -554.95,248.45 -554.95,554.94 0,306.49 248.46,554.95 554.95,554.95 306.49,0 554.94,-248.46 554.94,-554.95z" data-name="Ellipse 44"/>
    <path id="Ellipse_45" class="fil1" d="M21542.72 13697.22c0,-223.36 -181.06,-404.42 -404.42,-404.42 -223.35,0 -404.42,181.06 -404.42,404.42 0,223.35 181.07,404.42 404.42,404.42 223.36,0 404.42,-181.07 404.42,-404.42z" data-name="Ellipse 45"/>
    <path id="Ellipse_46" class="fil1" d="M22047.25 12526.58c0,-62.05 -50.31,-112.35 -112.35,-112.35 -62.05,0 -112.35,50.3 -112.35,112.35 0,62.05 50.3,112.35 112.35,112.35 62.04,0 112.35,-50.3 112.35,-112.35z" data-name="Ellipse 46"/>
    <g id="Group_190" data-name="Group 190">
     <path id="Path_49-4" class="fil0" d="M23385.65 15945.22c117.54,-92.52 174.76,-242.43 148.73,-389.8 -11.67,-66.03 -39.58,-128.23 -81.06,-180.87 -139,-176.33 -490.84,-329.33 -667.14,-190.01 -176.3,139.32 31.86,422.61 68.25,643.83 51.03,308.96 355.47,255.83 531.22,116.85z" data-name="Path 49"/>
    </g>
    <path id="Ellipse_47" class="fil1" d="M2446.03 7609.55c0,-62.05 -50.31,-112.36 -112.35,-112.36 -62.05,0 -112.35,50.31 -112.35,112.36 0,62.04 50.3,112.35 112.35,112.35 62.04,0 112.35,-50.31 112.35,-112.35z" data-name="Ellipse 47"/>
    <path id="Path_278" class="fil1" d="M16277.15 4682.63c0.03,0 -0.04,0 -0.04,0 -312.42,0 -565.78,-253.36 -565.78,-565.79 0,-150.03 59.68,-294.04 165.7,-400.07 106.05,-106.05 250.07,-165.73 400.11,-165.73 312.43,0 565.81,253.37 565.81,565.8 0,150.04 -59.68,294.07 -165.72,400.1 -105.51,105.99 -248.93,165.7 -398.53,165.7 -0.48,0 -1.03,0 -1.51,0l-0.04 -0.01zm400.07 -1155.81c-78.82,-74.98 -183.57,-116.79 -292.37,-116.79 -234.32,0 -424.34,190.02 -424.34,424.34 0,234.32 190.02,424.34 424.34,424.34 120.92,0 236.19,-51.65 316.64,-141.84 -0.19,-234.21 -190.11,-424.13 -424.32,-424.34l400.05 -165.71z" data-name="Path 278"/>
    <path id="Path_279" class="fil1" d="M13795.55 5703.2c-100.65,-0.05 -182.23,-81.67 -182.23,-182.33 0,-48.33 19.23,-94.74 53.38,-128.91 33.92,-32.51 79.15,-50.69 126.17,-50.69 100.67,0 182.33,81.65 182.33,182.33 0,47.01 -18.21,92.26 -50.73,126.19 -34,34.17 -80.23,53.42 -128.44,53.42 -0.15,0 -0.3,0 -0.46,0l-0.02 -0.01zm128.9 -372.49c-25.38,-24.12 -59.12,-37.59 -94.15,-37.59 -75.51,0 -136.74,61.23 -136.74,136.73 0,75.51 61.23,136.74 136.74,136.74 38.96,0 76.07,-16.63 102.01,-45.69 -0.07,-75.49 -61.26,-136.68 -136.75,-136.75l128.89 -53.44z" data-name="Path 279"/>
    <path id="Ellipse_48" class="fil1" d="M22210.03 6137.48c0,-149.46 -121.16,-270.63 -270.63,-270.63 -149.47,0 -270.63,121.17 -270.63,270.63 0,149.47 121.16,270.64 270.63,270.64 149.47,0 270.63,-121.17 270.63,-270.64z" data-name="Ellipse 48"/>
    <g id="Group_191" data-name="Group 191">
     <path id="Path_49-5" class="fil0" d="M23995.35 8854c58.88,137.44 188.79,231.48 337.82,244.5 66.77,5.83 134.03,-5.01 195.6,-31.43 206.22,-88.56 445.02,-388.64 356.15,-594.9 -88.87,-206.27 -416.26,-78.65 -639.24,-100.77 -311.51,-30.73 -339.01,276.94 -250.33,482.6z" data-name="Path 49"/>
    </g>
    <path id="Ellipse_49" class="fil1" d="M28565.4 11087.97c0,-371.16 -300.88,-672.03 -672.03,-672.03 -371.15,0 -672.03,300.87 -672.03,672.03 0,371.15 300.88,672.02 672.03,672.02 371.15,0 672.03,-300.87 672.03,-672.02z" data-name="Ellipse 49"/>
    <path id="Ellipse_50" class="fil2" d="M29372.62 12626.93c0,-62.05 -50.31,-112.35 -112.35,-112.35 -62.05,0 -112.35,50.3 -112.35,112.35 0,62.05 50.3,112.35 112.35,112.35 62.04,0 112.35,-50.3 112.35,-112.35z" data-name="Ellipse 50"/>
   </g>
  </g>
 </g>
</svg>
